<?xml version="1.0" encoding="UTF-8"?>
<svg width="120px" height="40px" id="brand" data-name="Layer 2" xmlns="http://www.w3.org/2000/svg" viewBox="0 0 2529.86 450.26">
  <defs>
    <style>
      .cls-1 {
        fill: #fff;
      }
    </style>
  </defs>
  <g id="branding">
    <g id="letters">
      <path class="cls-1" d="M401.83,174.29h-120.02c-.4-6.76-.55-13.34-1.21-19.87-3.16-31.17-23.74-49.55-55.34-50.07-28.17-.46-47.93,13.66-63.06,35.75-13.82,20.18-21.26,43-26.72,66.57-4.98,21.52-8.25,43.33-8.53,65.38-.23,17.68,1.47,35.33,11.63,50.75,8.85,13.44,22.04,19.93,37.55,22.1,17.56,2.47,34.36,.28,49.6-9.43,15.44-9.85,25.52-24.15,32.76-40.6,2.65-6.03,4.55-12.38,7.06-18.47,.52-1.27,2.18-2.94,3.33-2.95,39.52-.13,79.04-.08,118.56-.04,.27,0,.55,.19,1.37,.49-1.31,4.67-2.47,9.45-3.98,14.12-13.53,41.68-34.72,78.63-67.49,108.34-28.18,25.56-61.03,41.95-98.34,49.45-24.75,4.98-49.67,5.64-74.67,2.59-38.22-4.65-72.78-17.56-100.19-45.75-20.44-21.01-32.48-46.51-38.79-74.88C.06,304.09-.94,280.12,.75,255.92c3.08-44.12,13.5-86.28,33.92-125.65C61.56,78.46,100.42,38.91,154.81,15.86,177.45,6.26,201.14,1.06,225.81,.2c32.37-1.12,64.08,2.15,94.2,14.67,43.16,17.93,68.36,50.82,78.25,95.91,4.28,19.5,5.25,39.29,4.18,59.19-.08,1.43-.39,2.85-.61,4.33Z"/>
      <path class="cls-1" d="M1367.24,12.22h147.41c-9.18,49.51-18.31,98.75-27.53,148.51,6.97-6.16,13.24-12.11,19.94-17.55,23.69-19.23,50.87-26.56,81.14-23.75,12.41,1.15,24.46,3.35,35.77,8.62,23.19,10.81,35.55,29.92,40.74,54.2,4.67,21.85,3.66,43.82,.31,65.72-4.1,26.82-8.42,53.62-12.7,80.42-4.26,26.66-8.6,53.31-12.89,79.97-1.61,9.99-3.17,19.99-4.79,30.24h-112.42c1.34-8.45,2.64-16.78,3.97-25.1,3.4-21.29,6.79-42.59,10.21-63.88,3.39-21.13,7-42.23,10.14-63.4,1.7-11.45,3.04-22.98,3.68-34.53,.29-5.28-.92-10.86-2.47-15.99-4.69-15.49-18.17-20.64-34.9-19.26-25.18,2.07-38.61,19.67-43.5,42.06-6.13,28.07-10.83,56.45-16.1,84.7-6,32.14-11.94,64.3-17.95,96.65h-147.82c5.19-27.97,10.32-55.6,15.34-82.63,10.21-2.29,20.19-3.68,29.59-6.8,47.09-15.62,77.98-46.8,88.19-95.93,7.28-35.06-1.64-67-23.21-95.39-12.61-16.59-28.69-29.01-47.55-37.85-1.87-.87-3.05-1.55-2.55-4.19,6.58-34.73,13.01-69.48,19.49-104.23,.02-.12,.17-.22,.46-.6Z"/>
      <path class="cls-1" d="M2525.75,311.46h-214.16c-8.67,25.1,10.22,56.29,36.2,60.09,22.66,3.31,40.21-5.04,53.57-23.22,1.11-1.5,3.33-3.11,5.04-3.11,34.22-.18,68.43-.13,102.65-.12,.43,0,.87,.11,2.71,.35-5.57,9.84-10.3,19.6-16.28,28.52-23.77,35.46-57.93,55.89-98.59,66.54-23.11,6.05-46.68,8.24-70.44,6.93-30.2-1.66-58.6-9.28-82.9-28.38-22.25-17.48-36.12-40.46-40.59-68.07-9.79-60.47,4.85-115.22,42.81-163.2,28.37-35.85,65.85-57.68,110.83-65.91,32.88-6.01,65.46-4.33,96.54,8.96,38.23,16.34,60.52,46.35,70.82,85.81,6.8,26.07,7.18,52.55,3.81,79.16-.64,5.08-1.32,10.16-2.03,15.65Zm-102.72-63.08c.32-1.82,.79-3.52,.89-5.24,1.6-27.11-18.97-52.41-49.04-48.5-22.13,2.88-38.27,13.35-47.71,33.45-2.93,6.23-4.42,13.13-6.76,20.28h102.62Z"/>
      <path class="cls-1" d="M544.28,448.7c-26.62-.86-52.3-4.99-76.11-17.13-34.3-17.49-54.88-45.73-59.92-83.53-8.26-61.87,6.99-118.14,46.33-166.92,24.14-29.94,56.26-48.18,93.63-56.85,32.45-7.52,65.14-8.1,97.37,.88,48.13,13.41,77.41,44.61,86.5,94.11,4.01,21.85,2.83,43.58-.98,65.28-5.15,29.3-14.48,57.07-30.76,82.22-27.63,42.69-66.91,68.06-116.7,77.22-12.97,2.39-26.23,3.19-39.35,4.71Zm-25.86-138.74c1.38,9.11,1.89,18.45,4.31,27.27,5.8,21.1,21.85,30.43,43.5,26.47,16.06-2.94,27.01-12.89,34.6-26.38,15.66-27.85,21.34-58.22,20.21-89.87-.38-10.72-2.97-21.2-8.82-30.54-4.56-7.28-10.66-12.51-19.34-14.15-12.98-2.45-24.87,.42-35.53,7.95-12.18,8.61-19.73,20.82-25.38,34.29-8.68,20.73-12.16,42.49-13.55,64.96Z"/>
      <path class="cls-1" d="M1828.07,447.71c-28.39,.13-54.07-4.07-77.85-16.27-34.08-17.48-54.49-45.67-59.65-83.27-8.13-59.22,5.96-113.57,41.82-161.45,25.8-34.44,61.11-54.76,103.17-63.52,20.61-4.29,41.41-5.49,62.35-3.45,33.4,3.25,63.76,13.64,87.42,38.75,15.88,16.85,25.6,37.07,28.83,59.79,8.33,58.63-5.16,112.4-39.86,160.22-24.53,33.81-58.66,54.06-99.14,63.76-16.08,3.85-32.42,5.68-47.09,5.45Zm-26.37-138.2l-1.12,.2c1.64,9.79,2.51,19.78,5.11,29.31,3.31,12.15,11.04,21.18,23.78,24.36,11.24,2.81,22.28,1.33,32.44-4.38,14.35-8.06,22.44-21.24,28.46-35.92,7.52-18.34,11.48-37.58,13.04-57.23,1.18-14.87,.3-29.71-6-43.64-5.05-11.16-13.05-18.96-25.76-20.12-11.64-1.07-22.52,1.73-32.08,8.67-12.07,8.76-19.66,20.88-25.3,34.36-8.6,20.6-12.08,42.21-12.57,64.39Z"/>
      <path class="cls-1" d="M890.87,447.75c-27.72-.04-54.49-4.53-79.08-18.04-30.95-17.02-49.52-43.34-55.88-77.82-7.82-42.35-.28-83.05,16.07-122.25,16.02-38.41,41.9-68.51,78.78-88.56,21.03-11.43,43.58-18,67.36-20.7,28.13-3.19,55.89-1.9,82.8,7.29,43.44,14.84,69.55,45.07,77.99,90.14,6.69,35.76,.98,70.49-10.27,104.5-9.79,29.62-25.42,55.75-48.31,77.32-23.95,22.59-52.26,36.91-84.37,43.35-14.78,2.96-29.95,4.02-44.94,5.94-.06-.4-.11-.79-.17-1.19Zm77.67-186.92c0-14.93-1.08-26.45-5.73-37.31-5-11.67-12.93-20.09-26.26-21.42-8.92-.89-17.58,.69-25.68,4.79-14.58,7.37-23.25,19.96-29.99,34.14-7.71,16.21-11.45,33.54-13.38,51.25-1.56,14.36-1.95,28.75,1.67,42.95,5.71,22.39,21.98,32.79,44.7,28.42,16.14-3.11,26.91-13.45,34.64-27.06,13.86-24.45,18.56-51.35,20.04-75.75Z"/>
      <path class="cls-1" d="M2096.78,11.2h112.43c-22.84,142.6-45.63,284.94-68.45,427.45h-112.45c22.84-142.56,45.62-284.82,68.47-427.45Z"/>
      <path class="cls-1" d="M1154.22,12.13h147.77c-1.62,8.98-3.16,17.73-4.79,26.46-4,21.48-8.23,42.93-11.92,64.46-.84,4.87-2.94,5.79-7.36,6.21-57.17,5.4-105.36,47.45-115.02,102.89-9.83,56.49,21.81,108.66,71.47,131.89,1.72,.8,3.47,1.54,5.54,2.46-1.52,8.49-2.98,16.97-4.56,25.43-4.03,21.63-8.17,43.23-12.1,64.88-.42,2.32-1,3.31-3.48,3.31-47.63-.07-95.27-.07-142.9-.09-.43,0-.85-.19-1.98-.45,26.43-142.41,52.85-284.8,79.32-427.46Z"/>
      <path class="cls-1" d="M1236.47,232.22c0-19.44,0-38.88,0-58.32,0-12.67,11.81-19.89,23.08-13.88,15.83,8.43,31.5,17.16,47.25,25.74,20.27,11.05,40.53,22.11,60.82,33.11,5.37,2.91,9.32,6.8,9.36,13.3,.03,6.46-3.69,10.46-9.13,13.42-35.65,19.38-71.26,38.85-106.89,58.27-7.52,4.1-14.36,3.69-19.65-1.09-3.35-3.03-4.88-6.79-4.87-11.35,.07-19.73,.03-39.47,.03-59.2Z"/>
    </g>
  </g>
</svg>