<svg viewBox="0 0 24 24" xmlns="http://www.w3.org/2000/svg" display="none">
  <defs>
    <!-- CHAT: CHAT --><symbol id="ch-icon-chat" viewBox="0 0 24 24"><path d="M2 9.352c0 1.873.849 2.943 1.683 3.943.031 1 .085 1.668-.333 3.183 1.748-.558 2.038-.778 3.008-1.374 1 .244 1.474.381 2.611.491-.094.708-.081 1.275.055 2.023-.752-.06-1.528-.178-2.33-.374-1.397.857-4.481 1.725-6.649 2.115.811-1.595 1.708-3.785 1.661-5.312-1.091-1.305-1.706-2.985-1.706-4.695 0-4.826 4.719-8.352 10-8.352 5.237 0 9.977 3.484 9.998 8.318-.644-.175-1.322-.277-2.021-.314-.229-3.34-3.713-6.004-7.977-6.004-4.411 0-8 2.85-8 6.352zm20.883 10.169c-.029 1.001.558 2.435 1.088 3.479-1.419-.258-3.438-.824-4.352-1.385-.772.188-1.514.274-2.213.274-3.865 0-6.498-2.643-6.498-5.442 0-3.174 3.11-5.467 6.546-5.467 3.457 0 6.546 2.309 6.546 5.467 0 1.12-.403 2.221-1.117 3.074zm-5.664-4.521h-2.219v2.222h.889c0 .491-.347 1.096-.887 1.3l.221.478c1.167-.231 1.996-1.09 1.996-2.358v-1.642zm3.115 0h-2.219v2.222h.885c0 .491-.348 1.096-.888 1.3l.222.478c1.167-.231 2-1.09 2-2.358v-1.642zm-7.561-4v-2.777h-1.111c0-.615.434-1.371 1.108-1.625l-.275-.598c-1.459.289-2.495 1.363-2.495 2.948v2.052h2.773zm-4 0v-2.777h-1.105c0-.615.435-1.371 1.109-1.625l-.277-.598c-1.458.289-2.5 1.363-2.5 2.948v2.052h2.773z"/></symbol>
    <!-- CHAT: CHATOPTS --><symbol id="ch-icon-chat-opts" viewBox="0 0 24 24"><path d="M2,9.352 C2,11.225 2.849,12.295 3.683,13.295 C3.714,14.295 3.768,14.963 3.35,16.478 C5.098,15.92 5.388,15.7 6.358,15.104 C7.358,15.348 7.832,15.485 8.969,15.595 C8.875,16.303 8.888,16.87 9.024,17.618 C8.272,17.558 7.496,17.44 6.694,17.244 C5.297,18.101 2.213,18.969 0.045,19.359 C0.856,17.764 1.753,15.574 1.706,14.047 C0.615,12.742 -8.8817842e-16,11.062 -8.8817842e-16,9.352 C-8.8817842e-16,4.526 4.719,1 10,1 C15.237,1 19.977,4.484 19.998,9.318 C19.354,9.143 18.676,9.041 17.977,9.004 C17.748,5.664 14.264,3 10,3 C5.589,3 2,5.85 2,9.352 Z M12.3634286,9.53950739 L12.77,9.26578963 L12.773,8.223 L11.662,8.223 C11.662,7.608 12.096,6.852 12.77,6.598 L12.495,6 C11.036,6.289 10,7.363 10,8.948 C10,10.3591784 10,11.0366717 10,10.9804799 C10,10.9542689 10.2358837,10.9804799 10.4040253,10.9804799 C10.4040253,10.9804799 10.3709702,10.646261 10.3709702,10.587516 C10.3709702,10.54953 10.9139802,10.0813422 12,9.18295273 L12.3634286,9.53950739 Z M8.773,11 L8.773,8.223 L7.668,8.223 C7.668,7.608 8.103,6.852 8.777,6.598 L8.5,6 C7.042,6.289 6,7.363 6,8.948 L6,11 L8.773,11 L8.773,11 Z"/><path fill="#F0F0F0" fill-rule="nonzero" d="M14,8.16666667 L14,5.83333333 L12.1158333,5.83333333 C11.98225,5.24825 11.7518333,4.70166667 11.4415,4.20875 L12.775,2.87525 L11.1241667,1.225 L9.79066667,2.5585 C9.29775,2.24816667 8.75175,2.01716667 8.16666667,1.88416667 L8.16666667,4.4408921e-16 L5.83333333,4.4408921e-16 L5.83333333,1.88416667 C5.24825,2.01716667 4.70166667,2.24875 4.20875,2.55908333 L2.87525,1.22558333 L1.225,2.87525 L2.55908333,4.20933333 C2.24816667,4.70225 2.01775,5.24825 1.88416667,5.83333333 L4.4408921e-16,5.83333333 L4.4408921e-16,8.16666667 L1.88416667,8.16666667 C2.01775,8.75175 2.24816667,9.29775 2.5585,9.79066667 L1.225,11.12475 L2.87525,12.775 L4.20875,11.4415 C4.70166667,11.75125 5.24825,11.9828333 5.83333333,12.1158333 L5.83333333,14 L8.16666667,14 L8.16666667,12.1158333 C8.75175,11.9828333 9.29775,11.7518333 9.79066667,11.4415 L11.1241667,12.775 L12.7738333,11.12475 L11.4409167,9.79125 C11.75125,9.29833333 11.98225,8.75175 12.11525,8.16666667 L14,8.16666667 Z M7,9.33333333 C5.71141667,9.33333333 4.66666667,8.28858333 4.66666667,7 C4.66666667,5.71141667 5.71141667,4.66666667 7,4.66666667 C8.28858333,4.66666667 9.33333333,5.71141667 9.33333333,7 C9.33333333,8.28858333 8.28858333,9.33333333 7,9.33333333 Z" transform="translate(10 9)"/></symbol>
    <!-- ACTION: ARREST --><symbol id="ch-icon-action-arrest" viewBox="0 0 24 24"><path d="M9.47897054,21.9454841 C9.29015614,21.8636005 9.24999329,21.7982802 8.74624333,20.7242287 L8.60885698,20.429821 L8.44281786,20.6533096 C7.89327245,21.3676332 6.85736467,21.6074518 6.03304656,21.2094648 C5.71247841,21.0568954 5.3461148,20.6806041 5.18595318,20.3479374 C5.06007691,20.0915554 5.03705674,19.9553161 5.03705674,19.6009537 C5.03705674,19.0937887 5.15142292,18.7886498 5.48913375,18.4340541 L5.70096832,18.2105656 L4.63640777,18.2105656 C3.46874623,18.2105656 3.3085846,18.1779055 3.18246344,17.9107923 C3.1310354,17.8125786 3.11364782,17.2456922 3.11364782,15.9479188 L3.11364782,14.1268836 L2.84450771,13.9470197 C2.43308334,13.6796732 1.71749882,13.0089742 1.35676781,12.5510326 C0.973261523,12.0657965 0.543959787,11.2968839 0.349512794,10.7407286 C0.0691074958,9.95012032 -0.0053407231,9.47561537 0.000291872411,8.50514311 C0.00592446792,7.68724029 0.0230671499,7.54563532 0.183473674,6.96755113 C0.887548113,4.39953222 3.07985224,2.49661342 5.82708948,2.06036747 C6.41655285,1.96775269 7.5729492,1.98408275 8.16804516,2.0930276 C10.8697318,2.5892282 12.9819552,4.49751259 13.6514993,7.04943472 C13.8231711,7.69820476 13.8633339,9.06689725 13.7374576,9.73199735 C13.5371332,10.7407286 13.0850561,11.7440943 12.4840827,12.5183725 C12.1177191,12.9872786 11.4195221,13.6470131 10.9902204,13.9304563 L10.6696523,14.1376148 L10.6696523,16.0078735 L10.6696523,17.8781322 L10.5322659,18.0307016 L10.3948795,18.183271 L9.27301346,18.1996011 L8.15677997,18.2159312 L8.38575722,18.4993744 C8.51163348,18.6575427 8.63750975,18.8756657 8.6776726,18.9902094 L8.74061074,19.1920023 L9.58207153,19.1920023 C10.543776,19.1920023 10.8070386,19.1320477 11.1734022,18.8320411 C11.305156,18.7284618 11.4768277,18.5049733 11.5684186,18.3304749 L11.7285802,18.0197371 L11.757233,16.3239768 L11.7858857,14.6338154 L12.2266976,14.2684886 C12.46694,14.0666957 12.7189374,13.8376082 12.7818756,13.7559579 C12.9192619,13.592424 12.9192619,13.5977896 12.8448137,13.8485727 C12.7189374,14.2684886 12.6672645,14.9335887 12.7304475,15.3971292 C12.8563238,16.3895304 13.2457076,17.1311485 14.0124752,17.8615688 C14.8252833,18.6304815 15.7125395,19.0121383 16.8285281,19.0664941 C19.4386239,19.2027335 21.5564798,17.1855043 21.413216,14.6935368 C21.3559104,13.6358153 20.9496289,12.790618 20.1424534,12.0219386 C19.5645001,11.471149 19.0950356,11.1823401 18.4482667,10.9859128 C17.0687705,10.5715958 15.6951519,10.7624243 14.5617757,11.525738 C14.4187568,11.6239517 14.275493,11.7165665 14.2412076,11.7382621 C14.2012896,11.7601911 14.2527177,11.5856927 14.3443086,11.3512396 C14.6019386,10.7241653 14.7848755,9.98278045 14.8595686,9.26285799 L14.9225068,8.62481914 L15.4433994,8.50490983 C16.1646165,8.33041145 17.5210925,8.29238573 18.2538197,8.42302623 C21.4876642,8.99551155 23.800212,11.4818801 23.9890264,14.5897242 C24.09776,16.3564037 23.3936855,18.1557432 22.0886376,19.4588822 C20.199759,21.3508365 17.4466442,22.0052054 14.8595686,21.181937 C14.5218578,21.0729922 14.0352505,20.8765649 13.783498,20.7456911 L13.3142783,20.5058724 L11.6313567,21.2365261 C10.7098151,21.634513 9.885497,21.9781442 9.81129367,21.9944742 C9.73072307,22.0110376 9.58207153,21.9891087 9.47897054,21.9454841 Z M7.45270553,20.2879828 C7.80192645,20.0535297 7.90478254,19.5626947 7.68168278,19.1866367 L7.56143911,18.9738793 L7.45270553,19.1374132 C7.33833935,19.3282417 7.14928006,19.4101253 6.85173207,19.4101253 C6.69720304,19.4101253 6.60561214,19.3665007 6.45108311,19.2192968 C6.34234952,19.1157176 6.23924854,19.0284684 6.22210585,19.0284684 C6.21059577,19.0284684 6.14765764,19.1430121 6.0847195,19.2792515 C5.7127233,20.0754587 6.69720304,20.8005134 7.45270553,20.2879828 Z M7.17793282,16.9293556 C7.56143911,16.7438927 7.64151992,16.3242101 7.35548203,16.018838 L7.18944291,15.838974 L7.29817649,15.6481456 C7.35548203,15.5445663 7.40127748,15.402728 7.40691008,15.3374078 C7.40691008,15.2174985 7.38976739,15.2118996 6.9203028,15.2118996 C6.34798212,15.2118996 6.30781926,15.2501586 6.49100107,15.5935565 L6.61124474,15.8170451 L6.4623483,15.980579 C6.38226748,16.0731937 6.30218667,16.2040675 6.28479909,16.2749866 C6.22749355,16.4821452 6.3707574,16.7875173 6.57108188,16.9074266 C6.78316135,17.0329348 6.95483306,17.0383004 7.17793282,16.9293556 Z M8.00788353,12.6163529 C9.30729882,12.2836862 10.4404301,11.3405085 10.9385475,10.1845734 C11.396502,9.11052184 11.3563391,7.79105283 10.841324,6.8096161 C10.2976561,5.7735903 9.47897054,5.06486561 8.39163471,4.68857432 C5.89615,3.82168131 3.17144315,5.27202411 2.63340783,7.75279383 C2.14092306,10.026405 3.69796838,12.2293304 6.11900487,12.6819064 C6.61124474,12.7745212 7.52715375,12.7418611 8.00788353,12.6163529 Z" transform="translate(12, 12) scale(1, -1) translate(-12, -12)" /></symbol>
    <!-- ACTION: ATTACK --><symbol id="ch-icon-action-attack" viewBox="0 0 24 24"><path d="M5.27298969,20.088665 C5.11257732,19.7935722 4.91002062,19.5190155 4.66573196,19.2747268 C4.40956701,19.0188918 4.11925773,18.8101495 3.808,18.6454485 C3.43604124,18.4485825 3.73006186,18.0268918 3.73006186,18.0268918 C4.11076289,17.4476753 4.45789691,16.8657371 4.74490722,16.3587681 L2.81806186,14.4334897 L0.947463918,14.4334897 C0.58771134,14.4334897 0.296082474,14.1416134 0.296082474,13.7817784 C0.296082474,13.4221083 0.58771134,13.130232 0.947463918,13.130232 L3.08742268,13.130232 C3.26061856,13.130232 3.42614433,13.1988505 3.54828866,13.3209124 L10.5898557,20.3552217 C10.7121649,20.477531 10.7807835,20.6434691 10.7807835,20.8161701 L10.7807835,22.9665206 C10.7807835,23.3265206 10.4890722,23.6178196 10.1292371,23.6178196 C9.76907216,23.6178196 9.47736082,23.3266031 9.47736082,22.9665206 L9.47736082,21.0862732 L7.55818557,19.1695722 C7.04016495,19.4753041 6.43802062,19.8501495 5.84140206,20.2623557 C5.84131959,20.2621907 5.49954639,20.5054897 5.27298969,20.088665 Z" /><path d="M2.19331959,19.5548093 C1.60725773,19.5548093 1.05649485,19.7827681 0.641814433,20.1967887 C0.227876289,20.6103969 6.88338275e-14,21.1605825 6.88338275e-14,21.7454897 C6.88338275e-14,22.3308093 0.227958763,22.8805 0.641814433,23.2940258 C1.05641237,23.7077165 1.60725773,23.9359227 2.19331959,23.9360877 C2.77905155,23.9360877 3.32989691,23.707634 3.74416495,23.2940258 C4.15843299,22.8804175 4.38663918,22.3305619 4.38663918,21.7454897 C4.38663918,21.1605 4.15835052,20.6103145 3.74416495,20.1967887 C3.32997938,19.7827681 2.77905155,19.5548093 2.19331959,19.5548093 Z" /><path d="M8.32734021,15.0365413 C8.03851546,15.3251186 7.56593814,15.3251186 7.2771134,15.0366237 L6.55051546,14.3107681 C6.26169072,14.0222732 6.26169072,13.5501083 6.55051546,13.2616134 L18.9538969,0.871262909 C19.2427216,0.582768064 19.8117113,0.316458786 20.2182268,0.279510332 L23.2583918,0.00305672379 C23.6649897,-0.0338917298 23.9673402,0.268458786 23.9303918,0.675056724 L23.654433,3.709366 C23.6174845,4.11596394 23.3509278,4.68462373 23.0621031,4.97320105 L10.6579794,17.3650361 C10.3691546,17.653531 9.89657732,17.653531 9.60775258,17.3650361 L8.88016495,16.6381907 C8.59134021,16.3496959 8.59134021,15.877531 8.88016495,15.5889536 L19.2653196,5.21344848 C19.4182268,5.06103611 19.4183918,4.81328353 19.265567,4.66070621 C19.1131546,4.50788147 18.8653196,4.50788147 18.7122474,4.66054126 L8.32734021,15.0365413 Z" /></symbol>
    <!-- ACTION: TARGET-OTHERS --><symbol id="ch-icon-action-target-others" viewBox="0 0 24 24" fill-rule="evenodd" clip-rule="evenodd"><path d="M5 15.613c0-.788.061-1.243.992-1.458 1.074-.249 2.075-.466 1.591-1.381-1.476-2.785-.392-4.274 1.166-4.274 1.054 0 1.874.681 1.874 1.936 0 2.907-1.605 1.551-1.623 5.564v1h-4v-1.387zm14 1.387h-9v-1c0-1.373-.11-2.129 1.322-2.46 1.433-.331 2.27-.621 1.623-1.841-1.966-3.713-.521-5.699 1.555-5.699 2.117 0 3.527 2.062 1.556 5.699-.666 1.227.218 1.518 1.621 1.841 1.411.326 1.323 1.067 1.323 2.46v1zm-6 4.949v-2.949h-2v2.949c-4.717-.472-8.479-4.232-8.949-8.949h2.949v-2h-2.949c.47-4.718 4.232-8.479 8.949-8.95v2.95h2v-2.95c4.717.471 8.479 4.232 8.949 8.95h-2.949v2h2.949c-.47 4.717-4.232 8.477-8.949 8.949zm-1-21.949c-6.627 0-12 5.372-12 12 0 6.627 5.373 12 12 12s12-5.373 12-12c0-6.628-5.373-12-12-12z"/></symbol>
    <!-- EMOTE: DEAD --><symbol  id="ch-icon-emote-dead" width="24"  height="24"  viewBox="0 0 24 24"  fill="currentColor"  class="icon icon-tabler icons-tabler-filled icon-tabler-mood-crazy-happy"><path stroke="none" d="M0 0h24v24H0z" fill="none"/><path d="M17 3.34a10 10 0 1 1 -15 8.66l.005 -.324a10 10 0 0 1 14.995 -8.336m-1.8 10.946a1 1 0 0 0 -1.414 .014a2.5 2.5 0 0 1 -3.572 0a1 1 0 0 0 -1.428 1.4a4.5 4.5 0 0 0 6.428 0a1 1 0 0 0 -.014 -1.414m-7.493 -6.493a1 1 0 0 0 -1.414 1.414l.792 .793l-.792 .793a1 1 0 0 0 1.414 1.414l.793 -.792l.793 .792a1 1 0 1 0 1.414 -1.414l-.792 -.793l.792 -.793a1 1 0 1 0 -1.414 -1.414l-.793 .792zm7 0a1 1 0 0 0 -1.414 1.414l.792 .793l-.792 .793a1 1 0 0 0 1.414 1.414l.793 -.792l.793 .792a1 1 0 0 0 1.414 -1.414l-.792 -.793l.792 -.793a1 1 0 1 0 -1.414 -1.414l-.793 .792z" /></symbol>
    <!-- SIGN: DANGER --><symbol id="ch-icon-sign-danger" viewBox="0 0 24 24"><path d="M12 2c5.514 0 10 4.486 10 10s-4.486 10-10 10-10-4.486-10-10 4.486-10 10-10zm0-2c-6.627 0-12 5.373-12 12s5.373 12 12 12 12-5.373 12-12-5.373-12-12-12zm-1 6h2v8h-2v-8zm1 12.25c-.69 0-1.25-.56-1.25-1.25s.56-1.25 1.25-1.25 1.25.56 1.25 1.25-.56 1.25-1.25 1.25z"/></symbol>
    <!-- SIGN: INFO --><symbol id="ch-icon-sign-info" viewBox="0 0 24 24"><path d="M12 2c5.514 0 10 4.486 10 10s-4.486 10-10 10-10-4.486-10-10 4.486-10 10-10zm0-2c-6.627 0-12 5.373-12 12s5.373 12 12 12 12-5.373 12-12-5.373-12-12-12zm-.001 5.75c.69 0 1.251.56 1.251 1.25s-.561 1.25-1.251 1.25-1.249-.56-1.249-1.25.559-1.25 1.249-1.25zm2.001 12.25h-4v-1c.484-.179 1-.201 1-.735v-4.467c0-.534-.516-.618-1-.797v-1h3v6.265c0 .535.517.558 1 .735v.999z"/></symbol>
    <!-- SIGN: SUCCESS --><symbol id="ch-icon-sign-success" viewBox="0 0 24 24"><path d="M12 2c5.514 0 10 4.486 10 10s-4.486 10-10 10-10-4.486-10-10 4.486-10 10-10zm0-2c-6.627 0-12 5.373-12 12s5.373 12 12 12 12-5.373 12-12-5.373-12-12-12zm-1.959 17l-4.5-4.319 1.395-1.435 3.08 2.937 7.021-7.183 1.422 1.409-8.418 8.591z"/></symbol>
    <!-- SECURITY: BUG--><symbol id="ch-icon-security-bug" viewBox="0 0 24 24"><path d="M24 21.172l-5.66-5.659c1.047-1.581 1.66-3.475 1.66-5.513 0-5.523-4.477-10-10-10s-10 4.477-10 10 4.477 10 10 10c2.038 0 3.932-.613 5.512-1.66l5.66 5.66 2.828-2.828zm-22-11.172c0-4.411 3.589-8 8-8s8 3.589 8 8-3.589 8-8 8-8-3.589-8-8zm13 1.006c0 .239-.196.432-.439.432h-.995c-.231 0-.479.138-.532.473-.043.269.112.484.318.576l1.009.449c.221.098.318.354.22.572-.102.217-.361.314-.581.216l-1.068-.475c-.139-.063-.292-.029-.4.151-.446.735-1.31 1.464-2.532 1.6-1.246-.139-2.12-.894-2.557-1.643-.089-.152-.247-.164-.374-.107l-1.068.475c-.221.098-.479.001-.581-.216-.099-.218-.001-.474.22-.572l1.009-.449c.218-.097.359-.306.313-.609-.046-.285-.29-.44-.527-.44h-.996c-.243-.001-.439-.194-.439-.433s.196-.432.439-.432h1.001c.229 0 .47-.147.514-.462.034-.242-.114-.451-.322-.531l-.929-.362c-.226-.088-.337-.338-.248-.56.09-.222.345-.332.57-.244l.956.371c.123.047.298.032.392-.183.076-.169.16-.328.25-.477.713.416 1.497.624 2.377.624.867 0 1.661-.212 2.374-.625.095.154.183.318.259.494.081.183.249.221.386.168l.956-.371c.226-.088.48.021.57.244.089.222-.022.472-.248.56l-.929.361c-.2.077-.358.273-.32.556.038.274.272.438.512.438h1.001c.243-.001.439.192.439.431zm-6.587-4.847c.134.03.25.112.321.228.258.429-.078.796-.391 1.179.504.235 1.046.351 1.657.351.602 0 1.148-.119 1.654-.353-.308-.377-.644-.753-.389-1.177.071-.116.188-.198.321-.228.265-.058.465-.291.465-.573.001-.323-.265-.586-.595-.586-.393 0-.677.369-.575.74.038.141.018.29-.057.415-.169.279-.457.447-.824.449-.372-.002-.656-.173-.824-.449-.074-.125-.095-.274-.057-.415.102-.372-.182-.74-.575-.74-.33 0-.596.263-.596.586 0 .282.2.515.465.573z"/></symbol>
    <!-- SECURITY: LOG --><symbol id="ch-icon-security-log" viewBox="0 0 24 24"><path d="M23 17h-22v7h22v-7zm-20 5l.863-3h1.275l-.863 3h-1.275zm2.066 0l.863-3h1.275l-.863 3h-1.275zm2.067 0l.863-3h1.275l-.864 3h-1.274zm2.066 0l.863-3h1.274l-.863 3h-1.274zm3.341 0h-1.274l.863-3h1.275l-.864 3zm7.46-.5c-.552 0-1-.448-1-1s.448-1 1-1c.553 0 1 .448 1 1s-.447 1-1 1zm1-19.5v11h-18v-11h18zm2-2h-22v15h22v-15zm-13 7.5l-2.563-2.5-.771.751 1.794 1.749-1.794 1.749.771.751 2.563-2.5zm7 1.5h-5v1h5v-1z"/></symbol>
    <!-- SOCIAL: DONATE --><symbol  id="ch-icon-social-donate"  width="24"  height="24"  viewBox="0 0 24 24"  fill="currentColor"  class="icon icon-tabler icons-tabler-filled icon-tabler-coin"><path stroke="none" d="M0 0h24v24H0z" fill="none"/><path d="M17 3.34a10 10 0 1 1 -15 8.66l.005 -.324a10 10 0 0 1 14.995 -8.336zm-5 2.66a1 1 0 0 0 -1 1a3 3 0 1 0 0 6v2a1.024 1.024 0 0 1 -.866 -.398l-.068 -.101a1 1 0 0 0 -1.732 .998a3 3 0 0 0 2.505 1.5h.161a1 1 0 0 0 .883 .994l.117 .007a1 1 0 0 0 1 -1l.176 -.005a3 3 0 0 0 -.176 -5.995v-2c.358 -.012 .671 .14 .866 .398l.068 .101a1 1 0 0 0 1.732 -.998a3 3 0 0 0 -2.505 -1.501h-.161a1 1 0 0 0 -1 -1zm1 7a1 1 0 0 1 0 2v-2zm-2 -4v2a1 1 0 0 1 0 -2z" /></symbol>
    <!-- SOCIAL: DISCORD --><symbol  id="ch-icon-social-discord"  width="24"  height="24"  viewBox="0 0 24 24"  fill="currentColor"  class="icon icon-tabler icons-tabler-filled icon-tabler-brand-discord"><path stroke="none" d="M0 0h24v24H0z" fill="none"/><path d="M14.983 3l.123 .006c2.014 .214 3.527 .672 4.966 1.673a1 1 0 0 1 .371 .488c1.876 5.315 2.373 9.987 1.451 12.28c-1.003 2.005 -2.606 3.553 -4.394 3.553c-.732 0 -1.693 -.968 -2.328 -2.045a21.512 21.512 0 0 0 2.103 -.493a1 1 0 1 0 -.55 -1.924c-3.32 .95 -6.13 .95 -9.45 0a1 1 0 0 0 -.55 1.924c.717 .204 1.416 .37 2.103 .494c-.635 1.075 -1.596 2.044 -2.328 2.044c-1.788 0 -3.391 -1.548 -4.428 -3.629c-.888 -2.217 -.39 -6.89 1.485 -12.204a1 1 0 0 1 .371 -.488c1.439 -1.001 2.952 -1.459 4.966 -1.673a1 1 0 0 1 .935 .435l.063 .107l.651 1.285l.137 -.016a12.97 12.97 0 0 1 2.643 0l.134 .016l.65 -1.284a1 1 0 0 1 .754 -.54l.122 -.009zm-5.983 7a2 2 0 0 0 -1.977 1.697l-.018 .154l-.005 .149l.005 .15a2 2 0 1 0 1.995 -2.15zm6 0a2 2 0 0 0 -1.977 1.697l-.018 .154l-.005 .149l.005 .15a2 2 0 1 0 1.995 -2.15z" /></symbol>
    <!-- SOCIAL: GOLDS --><symbol id="ch-icon-social-golds" width="24" height="24" fill="currentColor" class="bi bi-discord" viewBox="0 0 24 24"><path d="M13.545 2.907a13.2 13.2 0 0 0-3.257-1.011.05.05 0 0 0-.052.025c-.141.25-.297.577-.406.833a12.2 12.2 0 0 0-3.658 0 8 8 0 0 0-.412-.833.05.05 0 0 0-.052-.025c-1.125.194-2.22.534-3.257 1.011a.04.04 0 0 0-.021.018C.356 6.024-.213 9.047.066 12.032q.003.022.021.037a13.3 13.3 0 0 0 3.995 2.02.05.05 0 0 0 .056-.019q.463-.63.818-1.329a.05.05 0 0 0-.01-.059l-.018-.011a9 9 0 0 1-1.248-.595.05.05 0 0 1-.02-.066l.015-.019q.127-.095.248-.195a.05.05 0 0 1 .051-.007c2.619 1.196 5.454 1.196 8.041 0a.05.05 0 0 1 .053.007q.121.1.248.195a.05.05 0 0 1-.004.085 8 8 0 0 1-1.249.594.05.05 0 0 0-.03.03.05.05 0 0 0 .003.041c.24.465.515.909.817 1.329a.05.05 0 0 0 .056.019 13.2 13.2 0 0 0 4.001-2.02.05.05 0 0 0 .021-.037c.334-3.451-.559-6.449-2.366-9.106a.03.03 0 0 0-.02-.019m-8.198 7.307c-.789 0-1.438-.724-1.438-1.612s.637-1.613 1.438-1.613c.807 0 1.45.73 1.438 1.613 0 .888-.637 1.612-1.438 1.612m5.316 0c-.788 0-1.438-.724-1.438-1.612s.637-1.613 1.438-1.613c.807 0 1.451.73 1.438 1.613 0 .888-.631 1.612-1.438 1.612"/></symbol>
    <!-- SOCIAL: PATREON --><symbol  id="ch-icon-social-patreon"  width="24"  height="24"  viewBox="0 0 24 24"  fill="none"  stroke="currentColor"  stroke-width="2"  stroke-linecap="round"  stroke-linejoin="round"  class="icon icon-tabler icons-tabler-outline icon-tabler-brand-patreon"><path stroke="none" d="M0 0h24v24H0z" fill="none"/><path d="M20 8.408c-.003 -2.299 -1.746 -4.182 -3.79 -4.862c-2.54 -.844 -5.888 -.722 -8.312 .453c-2.939 1.425 -3.862 4.545 -3.896 7.656c-.028 2.559 .22 9.297 3.92 9.345c2.75 .036 3.159 -3.603 4.43 -5.356c.906 -1.247 2.071 -1.599 3.506 -1.963c2.465 -.627 4.146 -2.626 4.142 -5.273z" /></symbol>
    <!-- SOCIAL: TWITTER --><symbol  id="ch-icon-social-twitter" width="24"  height="24"  viewBox="0 0 24 24"  fill="none"  stroke="currentColor"  stroke-width="2"  stroke-linecap="round"  stroke-linejoin="round"  class="icon icon-tabler icons-tabler-outline icon-tabler-brand-twitter"><path stroke="none" d="M0 0h24v24H0z" fill="none"/><path d="M22 4.01c-1 .49 -1.98 .689 -3 .99c-1.121 -1.265 -2.783 -1.335 -4.38 -.737s-2.643 2.06 -2.62 3.737v1c-3.245 .083 -6.135 -1.395 -8 -4c0 0 -4.182 7.433 4 11c-1.872 1.247 -3.739 2.088 -6 2c3.308 1.803 6.913 2.423 10.034 1.517c3.58 -1.04 6.522 -3.723 7.651 -7.742a13.84 13.84 0 0 0 .497 -3.753c0 -.249 1.51 -2.772 1.818 -4.013z" /></symbol>
    <!-- SOCIAL: VIDEO --><symbol  id="ch-icon-social-videos"  width="24"  height="24"  viewBox="0 0 24 24"  fill="currentColor"  class="icon icon-tabler icons-tabler-filled icon-tabler-pill"><path stroke="none" d="M0 0h24v24H0z" fill="none"/><path d="M20.207 3.793a5.95 5.95 0 0 1 0 8.414l-8 8a5.95 5.95 0 0 1 -8.414 -8.414l8 -8a5.95 5.95 0 0 1 8.414 0m-7 1.414l-4.294 4.293l5.586 5.586l4.294 -4.292a3.95 3.95 0 1 0 -5.586 -5.586" /></symbol>
    <!-- SOCIAL: GOLD --><symbol  id="ch-icon-social-gold"  width="24"  height="24"  viewBox="0 0 28 24"  fill="currentColor"  class="ch-gold-bar"><image href="../img/goldbar.avif" width="27.4" height="21.4"></image></symbol>
    <!-- UI: GAMEPAD --><symbol id="ch-icon-ui-gamepad" viewBox="0 0 24 24"><path d="M6 2l1.172.203c-.356 2.245.791 2.519 2.697 2.874 1.469.273 3.131.622 3.131 3.284v.639h-1.183v-.639c0-1.556-.479-1.809-2.163-2.122-2.584-.48-4.097-1.391-3.654-4.239zm-.176 10c-2.108 0-3.824 1.794-3.824 4s1.716 4 3.825 4c.928 0 1.825-.354 2.524-.999 1.015-.933 2.323-1.447 3.684-1.447 1.337 0 2.611.505 3.589 1.423.704.659 1.611 1.023 2.553 1.023 2.109 0 3.825-1.794 3.825-4 0-2.151-1.602-3.906-3.652-4h-12.524zm.001-2l12.563.007c3.118.116 5.612 2.755 5.612 5.993 0 3.312-2.607 6-5.825 6-1.511 0-2.886-.595-3.921-1.565-.637-.597-1.429-.881-2.221-.881-.838 0-1.676.318-2.329.919-1.03.948-2.389 1.527-3.879 1.527-3.218 0-5.825-2.688-5.825-6s2.607-6 5.825-6zm3.175 5h-2v-2h-2v2h-2v2h2v2h2v-2h2v-2zm4 1h-2v1h2v-1zm4-2c0 .552.447 1 1 1s1-.448 1-1-.447-1-1-1-1 .448-1 1zm0 2c0-.552-.447-1-1-1s-1 .448-1 1 .447 1 1 1 1-.448 1-1zm2 2c0-.552-.447-1-1-1s-1 .448-1 1 .447 1 1 1 1-.448 1-1zm2-2c0-.552-.447-1-1-1s-1 .448-1 1 .447 1 1 1 1-.448 1-1z"/></symbol>
    <!-- UI: GAMEPAD2 --><symbol id="ch-icon-ui-gamepad2" viewBox="0 0 24 24"><path d="M9 10h-1v1h-1v-1h-1v-1h1v-1h1v1h1v1zm4 1h-2v-1h2v1zm3.5-2c-.276 0-.5-.224-.5-.5s.224-.5.5-.5.5.224.5.5-.224.5-.5.5zm-1 1c-.276 0-.5-.224-.5-.5s.224-.5.5-.5.5.224.5.5-.224.5-.5.5zm2 0c-.276 0-.5-.224-.5-.5s.224-.5.5-.5.5.224.5.5-.224.5-.5.5zm-1 1c-.276 0-.5-.224-.5-.5s.224-.5.5-.5.5.224.5.5-.224.5-.5.5zm7.407 5.049l-2.344-9.66c-.205-.821-.942-1.389-1.788-1.389h-15.551c-.846 0-1.583.568-1.788 1.389l-2.344 9.66c-.063.251-.092.491-.092.716 0 1.38 1.094 2.235 2.286 2.235.632 0 1.292-.235 1.83-.773l2.405-2.345c.476.693 1.353 1.118 2.109 1.118 1.836 0 2.307-1.654 3.367-1.654h.005c1.061 0 1.531 1.654 3.368 1.654.756 0 1.633-.425 2.107-1.119l2.405 2.345c.539.539 1.199.774 1.831.774 1.191 0 2.287-.855 2.287-2.234 0-.226-.029-.465-.093-.717zm-5.015-1.613l-.449-.456c-1.059-1.081-1.895-1.935-3.131-1.935-.938 0-1.502.358-2 .675-.413.263-.771.49-1.323.49-.53 0-.887-.227-1.301-.49-.498-.316-1.062-.675-2-.675-1.236 0-2.072.854-3.131 1.935l-2.87 2.816c-.3.298-.777.324-.629-.271l2.13-8.762c.108-.448.51-.763.971-.763h13.682c.461 0 .863.315.972.764l2.133 8.776c.145.584-.34.55-.649.239l-2.405-2.343zm-10.177 1.39c-.653 0-1.185-.531-1.185-1.185 0-.653.531-1.185 1.185-1.185s1.185.531 1.185 1.185c-.001.653-.532 1.185-1.185 1.185zm6.57 0c-.653 0-1.186-.531-1.186-1.185 0-.653.532-1.185 1.186-1.185s1.185.531 1.185 1.185c0 .653-.532 1.185-1.185 1.185z"/></symbol>
    <!-- UI: ARROW-CARET-DOUBLE --><symbol id="ch-icon-ui-arrow-caret-double-right" viewBox="0 0 24 24"><path d="M14 12l-14 9v-18l14 9zm-4-9v4l8.022 5-8.022 5v4l14-9-14-9z"/></symbol>
    <!-- UI: ARROW-CARET-DOUBLE-REVERSE --><symbol id="ch-icon-ui-arrow-caret-double-left" viewBox="0 0 24 24"><path d="M14,12 L0,21 L0,3 L14,12 Z M10,3 L10,7 L18.022,12 L10,17 L10,21 L24,12 L10,3 Z" transform="matrix(-1 0 0 1 24 0)"/></symbol>
    <!-- UI: ARROW-CHEVRON-STROKE-SINGLE-RIGHT --><symbol id="ch-icon-ui-arrow-chevron-stroke-single-right" viewBox="0 0 24 24"><polygon points="4 3 7.057 0 19 12 7.057 24 4 21 13 12"/></symbol>
    <!-- UI: ARROW-CHEVRON-STROKE-SINGLE-LEFT --><symbol id="ch-icon-ui-arrow-chevron-stroke-single-left" viewBox="0 0 24 24"><polygon points="4 3 7.057 0 19 12 7.057 24 4 21 13 12" transform="matrix(-1 0 0 1 23 0)"/></symbol>
    <!-- UI: CHANNEL --><symbol id="ch-icon-ui-channel" viewBox="0 0 24 24"><path d="M13.846 9.812l.775-.776c-.671-.672-1.597-1.087-2.621-1.087-1.023 0-1.949.415-2.621 1.086l.776.776c.473-.471 1.124-.763 1.845-.763.722 0 1.373.292 1.846.764zm-5.846-2.155l.796.796c.82-.82 1.953-1.327 3.205-1.327 1.251 0 2.384.507 3.204 1.327l.795-.796c-1.023-1.024-2.438-1.657-3.999-1.657-1.562 0-2.977.633-4.001 1.657zm8 5.187v10.156h-8v-10.156c.772-1.229 2.386-1.844 4-1.844 1.613 0 3.227.615 4 1.844zm-5 1.157c0 .552.447 1 1 1s1-.448 1-1c0-.553-.447-1.001-1-1.001s-1 .448-1 1.001zm3 4.999c0-1.104-.895-2-1.998-2-1.106 0-2.002.896-2.002 2 0 1.105.896 2 2.002 2 1.103 0 1.998-.895 1.998-2zm-2-1c-.553 0-1 .448-1 1s.447 1 1 1 1-.448 1-1-.447-1-1-1zm12-17v16h-6v-2h4v-12h-20v12h4v2h-6v-16h24z"/></symbol>
    <!-- UI: DASHBOARD --><symbol id="ch-icon-ui-dashboard" viewBox="0 0 24 24"><path d="M20.043 10.76c-.141-.427-.314-.844-.516-1.242l-2.454 1.106c.217.393.39.81.517 1.242l2.453-1.106zm-12.572-.904c.271-.354.579-.674.918-.957l-1.89-1.968c-.328.293-.637.614-.919.957l1.891 1.968zm1.714-1.514c.38-.221.781-.396 1.198-.523l-1.033-2.569c-.412.142-.813.317-1.2.524l1.035 2.568zm-2.759 3.615c.121-.435.287-.854.498-1.25l-2.47-1.066c-.196.403-.364.823-.498 1.25l2.47 1.066zm9.434-6.2c-.387-.205-.79-.379-1.2-.519l-1.023 2.573c.418.125.82.299 1.2.519l1.023-2.573zm2.601 2.131c-.281-.342-.59-.664-.918-.957l-1.891 1.968c.34.283.648.604.919.957l1.89-1.968zm-5.791-3.06c-.219-.017-.437-.026-.648-.026-.213 0-.432.009-.65.026v2.784c.216-.025.434-.038.65-.038.215 0 .434.013.648.038v-2.784zm-.649 13.782c-1.293 0-2.343-1.049-2.343-2.343 0-.883.489-1.652 1.21-2.051l1.133-5.309 1.133 5.309c.723.399 1.211 1.168 1.211 2.051 0 1.294-1.049 2.343-2.344 2.343zm-.021-15.61c5.514 0 10 4.486 10 10 0 1.758-.458 3.5-1.303 5h-4.427c-.41 1.047-1.645 3-4.27 3-2.656 0-3.859-1.953-4.27-3h-4.427c-.845-1.5-1.303-3.242-1.303-5 0-5.514 4.486-10 10-10zm0-2c-6.627 0-12 5.373-12 12 0 2.583.816 5.042 2.205 7h4.357c.93 1.647 3.015 3 5.438 3s4.508-1.353 5.438-3h4.357c1.389-1.958 2.205-4.417 2.205-7 0-6.627-5.373-12-12-12z"/></symbol>
    <!-- UI: DOWNLOAD --><symbol id="ch-icon-ui-download" viewBox="0 0 24 24"><path d="M16 11h5l-9 10-9-10h5v-11h8v11zm3 8v3h-14v-3h-2v5h18v-5h-2z"/></symbol>
    <!-- UI: FILTER --><symbol id="ch-icon-ui-filter" viewBox="0 0 24 24"><polygon points="1 0 23 0 14 15.094 14 24 10 21 10 15.094" /></symbol>
    <!-- UI: ID --><symbol id="ch-icon-ui-id" viewBox="0 0 24 24"><path d="M22 5v14h-20v-14h20zm2-2h-24v18h24v-18zm-10 13.597v.403h-10v-.417c-.004-1.112.044-1.747 1.324-2.043 1.403-.324 2.787-.613 2.122-1.841-1.973-3.637-.563-5.699 1.554-5.699 2.077 0 3.521 1.985 1.556 5.699-.647 1.22.688 1.51 2.121 1.841 1.284.297 1.328.936 1.323 2.057zm6-9.597h-4v2h4v-2zm0 4h-4v2h4v-2zm0 4h-4v2h4v-2z"/></symbol>
    <!-- UI: LIBRARY --><symbol id="ch-icon-ui-library" viewBox="0 0 24 24"><path d="M2 0v24h20v-24h-20zm18 22h-13v-20h6v10l2.5-2.634 2.5 2.634v-10h2v20z"/></symbol>
    <!-- UI: MENU (DOTS:FILL) --><symbol id="ch-icon-ui-menu-dots-fill" viewBox="0 0 24 24"><circle cx="4" cy="12" r="3" /><circle cx="12" cy="12" r="3" /><circle cx="20" cy="12" r="3" /></symbol>
    <!-- UI: PLAYLIST --><symbol id="ch-icon-ui-playlist" viewBox="0 0 24 24"><path d="M6,23 L6,19 L24,19 L24,23 L6,23 Z M4,23 L0,23 L0,19 L4,19 L4,23 Z M6,17 L6,13 L24,13 L24,17 L6,17 Z M4,17 L0,17 L0,13 L4,13 L4,17 Z M6,11 L6,7 L24,7 L24,11 L6,11 Z M4,7 L4,11 L0,11 L0,7 L4,7 Z M6,1 L24,1 L24,5 L6,5 L6,1 Z M4,1 L4,5 L0,5 L0,1 L4,1 Z" /><polygon points="0 1 24 1 24 0 0 0" /></symbol>
    <!-- UI: PLUS --><symbol id="ch-icon-ui-plus" viewBox="0 0 24 24"><polygon points="24 9 15 9 15 0 9 0 9 9 0 9 0 15 9 15 9 24 15 24 15 15 24 15" /></symbol>
    <!-- UI: PREFERENCES --><symbol id="ch-icon-ui-preferences" width="24" height="24" viewBox="0 0 24 24" fill="none" stroke="currentColor" stroke-width="2" stroke-linecap="round" stroke-linejoin="round" class="icon icon-tabler icons-tabler-outline icon-tabler-message-2-cog"><path stroke="none" d="M0 0h24v24H0z" fill="none" /><path d="M8 9h8" /><path d="M8 13h6" /><path d="M12 21l-3 -3h-3a3 3 0 0 1 -3 -3v-8a3 3 0 0 1 3 -3h12a3 3 0 0 1 3 3v5" /><path d="M19.001 19m-2 0a2 2 0 1 0 4 0a2 2 0 1 0 -4 0" /><path d="M19.001 15.5v1.5" /><path d="M19.001 21v1.5" /><path d="M22.032 17.25l-1.299 .75" /><path d="M17.27 20l-1.3 .75" /><path d="M15.97 17.25l1.3 .75" /><path d="M20.733 20l1.3 .75" /></symbol>
    <!-- UI: POLL --><symbol  id="ch-icon-ui-poll"  width="24"  height="24"  viewBox="0 0 24 24"  fill="none"  stroke="currentColor"  stroke-width="2"  stroke-linecap="round"  stroke-linejoin="round"  class="icon icon-tabler icons-tabler-outline icon-tabler-chart-bar"><path stroke="none" d="M0 0h24v24H0z" fill="none"/><path d="M3 13a1 1 0 0 1 1 -1h4a1 1 0 0 1 1 1v6a1 1 0 0 1 -1 1h-4a1 1 0 0 1 -1 -1z" /><path d="M15 9a1 1 0 0 1 1 -1h4a1 1 0 0 1 1 1v10a1 1 0 0 1 -1 1h-4a1 1 0 0 1 -1 -1z" /><path d="M9 5a1 1 0 0 1 1 -1h4a1 1 0 0 1 1 1v14a1 1 0 0 1 -1 1h-4a1 1 0 0 1 -1 -1z" /><path d="M4 20h14" /></symbol>
    <!-- UI: SEARCH --><symbol id="ch-icon-ui-search" viewBox="0 0 24 24"><path d="M21.172,24 L13.785,16.613 C12.397,17.487 10.761,18 9,18 C4.029,18 0,13.971 0,9 C0,4.029 4.029,0 9,0 C13.971,0 18,4.029 18,9 C18,10.761 17.486,12.398 16.613,13.785 L24,21.172 L21.172,24 Z M9,16 C12.859,16 16,12.86 16,9 C16,5.14 12.859,2 9,2 C5.141,2 2,5.14 2,9 C2,12.86 5.141,16 9,16 Z" /></symbol>
    <!-- UI: SORT-AZ --><symbol id="ch-icon-ui-sort-az" viewBox="0 0 24 24"><path d="M6 22l6-8h-4v-12h-4v12h-4l6 8zm11.694-19.997h2.525l3.781 10.997h-2.421l-.705-2.261h-3.935l-.723 2.261h-2.336l3.814-10.997zm-.147 6.841h2.736l-1.35-4.326-1.386 4.326zm-.951 11.922l3.578-4.526h-3.487v-1.24h5.304v1.173l-3.624 4.593h3.633v1.234h-5.404v-1.234z"/></symbol>
    <!-- UI: TRASH --><symbol id="ch-icon-ui-trash" viewBox="0 0 24 24"><path d="M3 6v18h18v-18h-18zm5 14c0 .552-.448 1-1 1s-1-.448-1-1v-10c0-.552.448-1 1-1s1 .448 1 1v10zm5 0c0 .552-.448 1-1 1s-1-.448-1-1v-10c0-.552.448-1 1-1s1 .448 1 1v10zm5 0c0 .552-.448 1-1 1s-1-.448-1-1v-10c0-.552.448-1 1-1s1 .448 1 1v10zm4-18v2h-20v-2h5.711c.9 0 1.631-1.099 1.631-2h5.315c0 .901.73 2 1.631 2h5.712z"/></symbol>
    <!-- UI: UPLOAD --><symbol id="ch-icon-ui-upload" viewBox="0 0 24 24"><path d="M8 10h-5l9-10 9 10h-5v10h-8v-10zm11 9v3h-14v-3h-2v5h18v-5h-2z"/></symbol>
    <!-- UI: USER --><symbol id="ch-icon-ui-user" viewBox="0 0 24 24"><path d="M20.822,18.096 C17.383,17.302 14.182,16.606 15.732,13.678 C20.452,4.766 16.983,0 12,0 C6.918,0 3.536,4.949 8.268,13.678 C9.865,16.623 6.543,17.319 3.178,18.096 C0.105,18.806 -0.01,20.332 8.8839526e-16,23 L0.004,24 L23.994,24 L23.998,23.031 C24.01,20.343 23.906,18.809 20.822,18.096 Z" /></symbol>
    <!-- UI: USERSCRIPT --><symbol id="ch-icon-ui-userscript" viewBox="0 0 24 24"><path d="M14.568.075c2.202 1.174 5.938 4.883 7.432 6.881-1.286-.9-4.044-1.657-6.091-1.179.222-1.468-.185-4.534-1.341-5.702zm7.432 10.925v13h-20v-24h8.409c4.857 0 3.335 8 3.335 8 3.009-.745 8.256-.419 8.256 3zm-11 1l-5 2.201v1.599l5 2.2v-1.653l-3.229-1.347 3.229-1.351v-1.649zm7 2.201l-5-2.201v1.649l3.229 1.351-3.229 1.347v1.653l5-2.201v-1.598z"/></symbol>
    <!-- UI: VIDEO-PLAY-END --><symbol id="ch-icon-ui-video-play-end" viewBox="0 0 24 24"><path d="M11 16v-2.048s-7.156-.066-11 4.048c1.806-7.861 11-9.913 11-9.913v-2.087l7.18 5.02-7.18 4.98zm6-10v2.184l3.891 2.836-3.891 2.835v2.145l7-4.98-7-5.02z"/></symbol>
    <!-- UI: VIDEO-PLAY-NEXT --><symbol id="ch-icon-ui-video-play-next" viewBox="0 0 24 24"><path d="M14 18l10-7.088-10-6.912v3.042s-11.618 2.583-14 12.958c5.072-5.431 14-5.218 14-5.218v3.218z"/></symbol>
    <!-- UI: LINKS --><symbol id="ch-icon-ui-links" viewBox="0 0 24 24"><path d="M5 7c2.761 0 5 2.239 5 5s-2.239 5-5 5-5-2.239-5-5 2.239-5 5-5zm11.122 12.065c-.073.301-.122.611-.122.935 0 2.209 1.791 4 4 4s4-1.791 4-4-1.791-4-4-4c-1.165 0-2.204.506-2.935 1.301l-5.488-2.927c-.23.636-.549 1.229-.943 1.764l5.488 2.927zm7.878-15.065c0-2.209-1.791-4-4-4s-4 1.791-4 4c0 .324.049.634.122.935l-5.488 2.927c.395.535.713 1.127.943 1.764l5.488-2.927c.731.795 1.77 1.301 2.935 1.301 2.209 0 4-1.791 4-4z"/></symbol>
    <!-- UI: COOLPOINT COINS--><symbol id="ch-icon-ui-coin" viewBox="0 0 24 24" fill="none"><path d="M12 0C18.6275 0 24 5.37253 24 12C24 18.6275 18.6275 24 12 24C5.37253 24 -1.2517e-06 18.6275 -1.2517e-06 12C-1.2517e-06 5.37253 5.37253 0 12 0Z" fill="#F8C341"/><path d="M12 2.66666C17.1547 2.66666 21.3333 6.84532 21.3333 12C21.3333 17.1547 17.1547 21.3333 12 21.3333C6.84534 21.3333 2.66668 17.1547 2.66668 12C2.66668 6.84532 6.84534 2.66666 12 2.66666Z" fill="#CE8C00"/><path d="M4.42132 4.82401L2.94932 5.29334L4.13865 6.28001L4.60798 7.75201L5.59465 6.56267L7.06665 6.09067L5.87732 5.10401L5.40798 3.63467L4.42132 4.82401Z" fill="#FFED9A"/><path d="M2.31733 9.552L1.79466 10.328L2.73066 10.3493L3.50666 10.872L3.52799 9.936L4.05066 9.16L3.11466 9.13866L2.33599 8.616L2.31733 9.552Z" fill="#FFED9A"/><path d="M8.74491 12.1445C8.74491 10.4221 10.1129 9.01498 11.8363 8.92071L12.2421 6.69H8.5237L6.58694 17.3372H10.3053L10.7113 15.1051C10.1269 14.8539 9.62959 14.44 9.28029 13.9141C8.93098 13.3882 8.74491 12.7732 8.74491 12.1445V12.1445Z" fill="#F8C341"/><path d="M13.8468 6.69L13.3884 9.20979C13.9578 9.46762 14.4403 9.88118 14.7785 10.4014C15.1168 10.9216 15.2965 11.5266 15.2965 12.1445C15.2965 13.8455 13.9622 15.2394 12.2689 15.3643L11.91 17.3372H15.6284L17.5652 6.69H13.8468Z" fill="#F8C341"/><path d="M10.759 10.7686C10.759 10.5684 11.0003 10.4433 11.1931 10.5435L13.8238 11.908C14.0166 12.0082 14.0166 12.2583 13.8238 12.3583L11.1931 13.7229C11.0003 13.8231 10.759 13.6979 10.759 13.4977V10.7686Z" fill="#F8C341"/></symbol>
    <!-- UI: COOLPOINT COIN STENCIL--><symbol id="ch-icon-ui-coin-stencil" viewBox="0 0 4.2333332 4.233333" version="1.1" xml:space="preserve" xmlns="http://www.w3.org/2000/svg" xmlns:svg="http://www.w3.org/2000/svg"><defs id="defs2" /><path id="path354" fill="#F0F0F0" fill-rule="nonzero" style="stroke-width:0.499999;stroke-linejoin:round" d="M 2.1166666,0 A 2.1166666,2.1166666 0 0 0 0,2.1166666 2.1166666,2.1166666 0 0 0 2.1166666,4.2333332 2.1166666,2.1166666 0 0 0 4.2333332,2.1166666 2.1166666,2.1166666 0 0 0 2.1166666,0 Z m 0,0.42529703 A 1.6914089,1.6914089 0 0 1 3.8080362,2.1166666 1.6914089,1.6914089 0 0 1 2.1166666,3.8080362 1.6914089,1.6914089 0 0 1 0.42529703,2.1166666 1.6914089,1.6914089 0 0 1 2.1166666,0.42529703 Z M 1.7766357,1.0314616 c -0.3538459,0 -0.3749412,6.779e-4 -0.3767212,0.00672 -0.00302,0.010153 -0.3865397,2.150791 -0.3865397,2.157491 0,0.00556 0.029334,0.0062 0.3751709,0.0062 0.2063091,0 0.3751709,-0.0011 0.3751709,-0.00207 0,-9.557e-4 0.018044,-0.1028142 0.040308,-0.2268595 0.022264,-0.1240452 0.0399,-0.2262818 0.039274,-0.2268595 -6.25e-4,-5.81e-4 -0.016872,-0.00912 -0.036174,-0.01912 C 1.5938165,2.616408 1.4612587,2.4087916 1.4500407,2.1678263 1.4362184,1.8709189 1.6356213,1.5968971 1.9264974,1.5125691 1.9614694,1.5024302 2.035448,1.488798 2.056722,1.488798 c 0.00788,0 0.013953,-7.271e-4 0.013953,-0.00207 0,-0.00134 0.018171,-0.1032211 0.040308,-0.2263427 0.022145,-0.1231217 0.040308,-0.2250028 0.040308,-0.2263428 0,-0.00134 -0.1684805,-0.00258 -0.3746541,-0.00258 z m 1.0681518,0 c -0.2063091,0 -0.3751708,0.00113 -0.3751708,0.00207 0,9.307e-4 -0.020308,0.1160258 -0.045475,0.2563151 -0.025167,0.1402894 -0.045476,0.2554408 -0.044958,0.2557984 5.13e-4,3.6e-4 0.014388,0.00784 0.030489,0.016536 0.1533994,0.082904 0.264576,0.2135029 0.3183268,0.3741374 0.077244,0.2308381 0.020013,0.4839819 -0.1493449,0.6604248 -0.1041461,0.1085029 -0.2560313,0.1845961 -0.3937744,0.1974039 -0.014075,0.00126 -0.027159,0.00338 -0.028939,0.00465 -0.00182,0.00124 -0.018516,0.088089 -0.037207,0.1927531 -0.018691,0.1046644 -0.034607,0.1944878 -0.035657,0.1999878 l -0.00207,0.010335 h 0.3751709 c 0.3542824,0 0.3754579,-6.88e-4 0.3772379,-0.00672 0.00303,-0.010168 0.3865397,-2.150771 0.3865397,-2.157491 0,-0.00558 -0.028748,-0.0062 -0.3751709,-0.0062 z M 1.9073771,1.8081583 c -0.019274,8.243e-4 -0.039878,0.011124 -0.048576,0.025322 -0.00729,0.011981 -0.00761,0.016195 -0.00672,0.3110921 l 0.00103,0.2992065 0.0093,0.00982 c 0.00503,0.00545 0.014124,0.012156 0.020154,0.014986 0.00653,0.00305 0.019036,0.00433 0.031006,0.00362 0.018448,-0.00111 0.042971,-0.012975 0.2940388,-0.1452108 C 2.409826,2.220489 2.4832297,2.1796748 2.4887297,2.1719648 2.5042907,2.1501078 2.5005047,2.1201168 2.4799397,2.1016848 2.4752319,2.0974487 2.3499748,2.0298677 2.201416,1.9518188 2.0029382,1.8475428 1.9271903,1.8094583 1.9156453,1.8081583 c -0.00265,-2.983e-4 -0.00551,-1.177e-4 -0.00827,0 z" /></symbol>
  </defs>
</svg>