<svg viewBox="0 0 24 24" xmlns="http://www.w3.org/2000/svg" display="none">
  <defs>
    <!-- CHAT: AWAY --><symbol id="ch-icon-chat-away" viewBox="0 0 24 24"><path d="M12,2 C17.514,2 22,6.486 22,12 C22,17.514 17.514,22 12,22 C6.486,22 2,17.514 2,12 C2,6.486 6.486,2 12,2 Z M12,0 C5.373,0 0,5.373 0,12 C0,18.627 5.373,24 12,24 C18.627,24 24,18.627 24,12 C24,5.373 18.627,0 12,0 Z M13,12 L13,6 L11,6 L11,14 L18,14 L18,12 L13,12 Z" /></symbol>
    <!-- CHAT: CHAT --><symbol id="ch-icon-chat" viewBox="0 0 24 24"><path d="M2 9.352c0 1.873.849 2.943 1.683 3.943.031 1 .085 1.668-.333 3.183 1.748-.558 2.038-.778 3.008-1.374 1 .244 1.474.381 2.611.491-.094.708-.081 1.275.055 2.023-.752-.06-1.528-.178-2.33-.374-1.397.857-4.481 1.725-6.649 2.115.811-1.595 1.708-3.785 1.661-5.312-1.091-1.305-1.706-2.985-1.706-4.695 0-4.826 4.719-8.352 10-8.352 5.237 0 9.977 3.484 9.998 8.318-.644-.175-1.322-.277-2.021-.314-.229-3.34-3.713-6.004-7.977-6.004-4.411 0-8 2.85-8 6.352zm20.883 10.169c-.029 1.001.558 2.435 1.088 3.479-1.419-.258-3.438-.824-4.352-1.385-.772.188-1.514.274-2.213.274-3.865 0-6.498-2.643-6.498-5.442 0-3.174 3.11-5.467 6.546-5.467 3.457 0 6.546 2.309 6.546 5.467 0 1.12-.403 2.221-1.117 3.074zm-5.664-4.521h-2.219v2.222h.889c0 .491-.347 1.096-.887 1.3l.221.478c1.167-.231 1.996-1.09 1.996-2.358v-1.642zm3.115 0h-2.219v2.222h.885c0 .491-.348 1.096-.888 1.3l.222.478c1.167-.231 2-1.09 2-2.358v-1.642zm-7.561-4v-2.777h-1.111c0-.615.434-1.371 1.108-1.625l-.275-.598c-1.459.289-2.495 1.363-2.495 2.948v2.052h2.773zm-4 0v-2.777h-1.105c0-.615.435-1.371 1.109-1.625l-.277-.598c-1.458.289-2.5 1.363-2.5 2.948v2.052h2.773z"/></symbol>
    <!-- CHAT: CHATOPTS --><symbol id="ch-icon-chat-opts" viewBox="0 0 24 24"><path d="M2,9.352 C2,11.225 2.849,12.295 3.683,13.295 C3.714,14.295 3.768,14.963 3.35,16.478 C5.098,15.92 5.388,15.7 6.358,15.104 C7.358,15.348 7.832,15.485 8.969,15.595 C8.875,16.303 8.888,16.87 9.024,17.618 C8.272,17.558 7.496,17.44 6.694,17.244 C5.297,18.101 2.213,18.969 0.045,19.359 C0.856,17.764 1.753,15.574 1.706,14.047 C0.615,12.742 -8.8817842e-16,11.062 -8.8817842e-16,9.352 C-8.8817842e-16,4.526 4.719,1 10,1 C15.237,1 19.977,4.484 19.998,9.318 C19.354,9.143 18.676,9.041 17.977,9.004 C17.748,5.664 14.264,3 10,3 C5.589,3 2,5.85 2,9.352 Z M12.3634286,9.53950739 L12.77,9.26578963 L12.773,8.223 L11.662,8.223 C11.662,7.608 12.096,6.852 12.77,6.598 L12.495,6 C11.036,6.289 10,7.363 10,8.948 C10,10.3591784 10,11.0366717 10,10.9804799 C10,10.9542689 10.2358837,10.9804799 10.4040253,10.9804799 C10.4040253,10.9804799 10.3709702,10.646261 10.3709702,10.587516 C10.3709702,10.54953 10.9139802,10.0813422 12,9.18295273 L12.3634286,9.53950739 Z M8.773,11 L8.773,8.223 L7.668,8.223 C7.668,7.608 8.103,6.852 8.777,6.598 L8.5,6 C7.042,6.289 6,7.363 6,8.948 L6,11 L8.773,11 L8.773,11 Z"/><path fill="#F0F0F0" fill-rule="nonzero" d="M14,8.16666667 L14,5.83333333 L12.1158333,5.83333333 C11.98225,5.24825 11.7518333,4.70166667 11.4415,4.20875 L12.775,2.87525 L11.1241667,1.225 L9.79066667,2.5585 C9.29775,2.24816667 8.75175,2.01716667 8.16666667,1.88416667 L8.16666667,4.4408921e-16 L5.83333333,4.4408921e-16 L5.83333333,1.88416667 C5.24825,2.01716667 4.70166667,2.24875 4.20875,2.55908333 L2.87525,1.22558333 L1.225,2.87525 L2.55908333,4.20933333 C2.24816667,4.70225 2.01775,5.24825 1.88416667,5.83333333 L4.4408921e-16,5.83333333 L4.4408921e-16,8.16666667 L1.88416667,8.16666667 C2.01775,8.75175 2.24816667,9.29775 2.5585,9.79066667 L1.225,11.12475 L2.87525,12.775 L4.20875,11.4415 C4.70166667,11.75125 5.24825,11.9828333 5.83333333,12.1158333 L5.83333333,14 L8.16666667,14 L8.16666667,12.1158333 C8.75175,11.9828333 9.29775,11.7518333 9.79066667,11.4415 L11.1241667,12.775 L12.7738333,11.12475 L11.4409167,9.79125 C11.75125,9.29833333 11.98225,8.75175 12.11525,8.16666667 L14,8.16666667 Z M7,9.33333333 C5.71141667,9.33333333 4.66666667,8.28858333 4.66666667,7 C4.66666667,5.71141667 5.71141667,4.66666667 7,4.66666667 C8.28858333,4.66666667 9.33333333,5.71141667 9.33333333,7 C9.33333333,8.28858333 8.28858333,9.33333333 7,9.33333333 Z" transform="translate(10 9)"/></symbol>
    <!-- ACTION: ARREST --><symbol id="ch-icon-action-arrest" viewBox="0 0 24 24"><path d="M9.47897054,21.9454841 C9.29015614,21.8636005 9.24999329,21.7982802 8.74624333,20.7242287 L8.60885698,20.429821 L8.44281786,20.6533096 C7.89327245,21.3676332 6.85736467,21.6074518 6.03304656,21.2094648 C5.71247841,21.0568954 5.3461148,20.6806041 5.18595318,20.3479374 C5.06007691,20.0915554 5.03705674,19.9553161 5.03705674,19.6009537 C5.03705674,19.0937887 5.15142292,18.7886498 5.48913375,18.4340541 L5.70096832,18.2105656 L4.63640777,18.2105656 C3.46874623,18.2105656 3.3085846,18.1779055 3.18246344,17.9107923 C3.1310354,17.8125786 3.11364782,17.2456922 3.11364782,15.9479188 L3.11364782,14.1268836 L2.84450771,13.9470197 C2.43308334,13.6796732 1.71749882,13.0089742 1.35676781,12.5510326 C0.973261523,12.0657965 0.543959787,11.2968839 0.349512794,10.7407286 C0.0691074958,9.95012032 -0.0053407231,9.47561537 0.000291872411,8.50514311 C0.00592446792,7.68724029 0.0230671499,7.54563532 0.183473674,6.96755113 C0.887548113,4.39953222 3.07985224,2.49661342 5.82708948,2.06036747 C6.41655285,1.96775269 7.5729492,1.98408275 8.16804516,2.0930276 C10.8697318,2.5892282 12.9819552,4.49751259 13.6514993,7.04943472 C13.8231711,7.69820476 13.8633339,9.06689725 13.7374576,9.73199735 C13.5371332,10.7407286 13.0850561,11.7440943 12.4840827,12.5183725 C12.1177191,12.9872786 11.4195221,13.6470131 10.9902204,13.9304563 L10.6696523,14.1376148 L10.6696523,16.0078735 L10.6696523,17.8781322 L10.5322659,18.0307016 L10.3948795,18.183271 L9.27301346,18.1996011 L8.15677997,18.2159312 L8.38575722,18.4993744 C8.51163348,18.6575427 8.63750975,18.8756657 8.6776726,18.9902094 L8.74061074,19.1920023 L9.58207153,19.1920023 C10.543776,19.1920023 10.8070386,19.1320477 11.1734022,18.8320411 C11.305156,18.7284618 11.4768277,18.5049733 11.5684186,18.3304749 L11.7285802,18.0197371 L11.757233,16.3239768 L11.7858857,14.6338154 L12.2266976,14.2684886 C12.46694,14.0666957 12.7189374,13.8376082 12.7818756,13.7559579 C12.9192619,13.592424 12.9192619,13.5977896 12.8448137,13.8485727 C12.7189374,14.2684886 12.6672645,14.9335887 12.7304475,15.3971292 C12.8563238,16.3895304 13.2457076,17.1311485 14.0124752,17.8615688 C14.8252833,18.6304815 15.7125395,19.0121383 16.8285281,19.0664941 C19.4386239,19.2027335 21.5564798,17.1855043 21.413216,14.6935368 C21.3559104,13.6358153 20.9496289,12.790618 20.1424534,12.0219386 C19.5645001,11.471149 19.0950356,11.1823401 18.4482667,10.9859128 C17.0687705,10.5715958 15.6951519,10.7624243 14.5617757,11.525738 C14.4187568,11.6239517 14.275493,11.7165665 14.2412076,11.7382621 C14.2012896,11.7601911 14.2527177,11.5856927 14.3443086,11.3512396 C14.6019386,10.7241653 14.7848755,9.98278045 14.8595686,9.26285799 L14.9225068,8.62481914 L15.4433994,8.50490983 C16.1646165,8.33041145 17.5210925,8.29238573 18.2538197,8.42302623 C21.4876642,8.99551155 23.800212,11.4818801 23.9890264,14.5897242 C24.09776,16.3564037 23.3936855,18.1557432 22.0886376,19.4588822 C20.199759,21.3508365 17.4466442,22.0052054 14.8595686,21.181937 C14.5218578,21.0729922 14.0352505,20.8765649 13.783498,20.7456911 L13.3142783,20.5058724 L11.6313567,21.2365261 C10.7098151,21.634513 9.885497,21.9781442 9.81129367,21.9944742 C9.73072307,22.0110376 9.58207153,21.9891087 9.47897054,21.9454841 Z M7.45270553,20.2879828 C7.80192645,20.0535297 7.90478254,19.5626947 7.68168278,19.1866367 L7.56143911,18.9738793 L7.45270553,19.1374132 C7.33833935,19.3282417 7.14928006,19.4101253 6.85173207,19.4101253 C6.69720304,19.4101253 6.60561214,19.3665007 6.45108311,19.2192968 C6.34234952,19.1157176 6.23924854,19.0284684 6.22210585,19.0284684 C6.21059577,19.0284684 6.14765764,19.1430121 6.0847195,19.2792515 C5.7127233,20.0754587 6.69720304,20.8005134 7.45270553,20.2879828 Z M7.17793282,16.9293556 C7.56143911,16.7438927 7.64151992,16.3242101 7.35548203,16.018838 L7.18944291,15.838974 L7.29817649,15.6481456 C7.35548203,15.5445663 7.40127748,15.402728 7.40691008,15.3374078 C7.40691008,15.2174985 7.38976739,15.2118996 6.9203028,15.2118996 C6.34798212,15.2118996 6.30781926,15.2501586 6.49100107,15.5935565 L6.61124474,15.8170451 L6.4623483,15.980579 C6.38226748,16.0731937 6.30218667,16.2040675 6.28479909,16.2749866 C6.22749355,16.4821452 6.3707574,16.7875173 6.57108188,16.9074266 C6.78316135,17.0329348 6.95483306,17.0383004 7.17793282,16.9293556 Z M8.00788353,12.6163529 C9.30729882,12.2836862 10.4404301,11.3405085 10.9385475,10.1845734 C11.396502,9.11052184 11.3563391,7.79105283 10.841324,6.8096161 C10.2976561,5.7735903 9.47897054,5.06486561 8.39163471,4.68857432 C5.89615,3.82168131 3.17144315,5.27202411 2.63340783,7.75279383 C2.14092306,10.026405 3.69796838,12.2293304 6.11900487,12.6819064 C6.61124474,12.7745212 7.52715375,12.7418611 8.00788353,12.6163529 Z" transform="translate(12, 12) scale(1, -1) translate(-12, -12)" /></symbol>
    <!-- ACTION: ATTACK --><symbol id="ch-icon-action-attack" viewBox="0 0 24 24"><path d="M5.27298969,20.088665 C5.11257732,19.7935722 4.91002062,19.5190155 4.66573196,19.2747268 C4.40956701,19.0188918 4.11925773,18.8101495 3.808,18.6454485 C3.43604124,18.4485825 3.73006186,18.0268918 3.73006186,18.0268918 C4.11076289,17.4476753 4.45789691,16.8657371 4.74490722,16.3587681 L2.81806186,14.4334897 L0.947463918,14.4334897 C0.58771134,14.4334897 0.296082474,14.1416134 0.296082474,13.7817784 C0.296082474,13.4221083 0.58771134,13.130232 0.947463918,13.130232 L3.08742268,13.130232 C3.26061856,13.130232 3.42614433,13.1988505 3.54828866,13.3209124 L10.5898557,20.3552217 C10.7121649,20.477531 10.7807835,20.6434691 10.7807835,20.8161701 L10.7807835,22.9665206 C10.7807835,23.3265206 10.4890722,23.6178196 10.1292371,23.6178196 C9.76907216,23.6178196 9.47736082,23.3266031 9.47736082,22.9665206 L9.47736082,21.0862732 L7.55818557,19.1695722 C7.04016495,19.4753041 6.43802062,19.8501495 5.84140206,20.2623557 C5.84131959,20.2621907 5.49954639,20.5054897 5.27298969,20.088665 Z" /><path d="M2.19331959,19.5548093 C1.60725773,19.5548093 1.05649485,19.7827681 0.641814433,20.1967887 C0.227876289,20.6103969 6.88338275e-14,21.1605825 6.88338275e-14,21.7454897 C6.88338275e-14,22.3308093 0.227958763,22.8805 0.641814433,23.2940258 C1.05641237,23.7077165 1.60725773,23.9359227 2.19331959,23.9360877 C2.77905155,23.9360877 3.32989691,23.707634 3.74416495,23.2940258 C4.15843299,22.8804175 4.38663918,22.3305619 4.38663918,21.7454897 C4.38663918,21.1605 4.15835052,20.6103145 3.74416495,20.1967887 C3.32997938,19.7827681 2.77905155,19.5548093 2.19331959,19.5548093 Z" /><path d="M8.32734021,15.0365413 C8.03851546,15.3251186 7.56593814,15.3251186 7.2771134,15.0366237 L6.55051546,14.3107681 C6.26169072,14.0222732 6.26169072,13.5501083 6.55051546,13.2616134 L18.9538969,0.871262909 C19.2427216,0.582768064 19.8117113,0.316458786 20.2182268,0.279510332 L23.2583918,0.00305672379 C23.6649897,-0.0338917298 23.9673402,0.268458786 23.9303918,0.675056724 L23.654433,3.709366 C23.6174845,4.11596394 23.3509278,4.68462373 23.0621031,4.97320105 L10.6579794,17.3650361 C10.3691546,17.653531 9.89657732,17.653531 9.60775258,17.3650361 L8.88016495,16.6381907 C8.59134021,16.3496959 8.59134021,15.877531 8.88016495,15.5889536 L19.2653196,5.21344848 C19.4182268,5.06103611 19.4183918,4.81328353 19.265567,4.66070621 C19.1131546,4.50788147 18.8653196,4.50788147 18.7122474,4.66054126 L8.32734021,15.0365413 Z" /></symbol>
    <!-- ACTION: TARGET-OTHERS --><symbol id="ch-icon-action-target-others" viewBox="0 0 24 24" fill-rule="evenodd" clip-rule="evenodd"><path d="M5 15.613c0-.788.061-1.243.992-1.458 1.074-.249 2.075-.466 1.591-1.381-1.476-2.785-.392-4.274 1.166-4.274 1.054 0 1.874.681 1.874 1.936 0 2.907-1.605 1.551-1.623 5.564v1h-4v-1.387zm14 1.387h-9v-1c0-1.373-.11-2.129 1.322-2.46 1.433-.331 2.27-.621 1.623-1.841-1.966-3.713-.521-5.699 1.555-5.699 2.117 0 3.527 2.062 1.556 5.699-.666 1.227.218 1.518 1.621 1.841 1.411.326 1.323 1.067 1.323 2.46v1zm-6 4.949v-2.949h-2v2.949c-4.717-.472-8.479-4.232-8.949-8.949h2.949v-2h-2.949c.47-4.718 4.232-8.479 8.949-8.95v2.95h2v-2.95c4.717.471 8.479 4.232 8.949 8.95h-2.949v2h2.949c-.47 4.717-4.232 8.477-8.949 8.949zm-1-21.949c-6.627 0-12 5.372-12 12 0 6.627 5.373 12 12 12s12-5.373 12-12c0-6.628-5.373-12-12-12z"/></symbol>
    <!-- EMOTE: DEAD --><symbol id="ch-icon-emote-dead" viewbox="0 0 24 24"><path d="M12 2c5.514 0 10 4.486 10 10s-4.486 10-10 10-10-4.486-10-10 4.486-10 10-10zm0-2c-6.627 0-12 5.373-12 12s5.373 12 12 12 12-5.373 12-12-5.373-12-12-12zm4 17h-8v-2h8v2zm-.499-6.296l-1.298 1.296-1.203-1.204 1.298-1.296-1.298-1.296 1.203-1.204 1.298 1.296 1.296-1.296 1.203 1.204-1.297 1.296 1.297 1.296-1.202 1.204-1.297-1.296zm-7 0l-1.298 1.296-1.203-1.204 1.298-1.296-1.298-1.296 1.203-1.204 1.298 1.296 1.296-1.296 1.203 1.204-1.297 1.296 1.297 1.296-1.202 1.204-1.297-1.296z"/></symbol>
    <!-- GAME: CHARACTER --><symbol id="ch-icon-game-character" viewBox="0 0 24 24"><path d="M0 3v18h24v-18h-24zm13 14h-10v-.417c-.004-1.112.044-1.747 1.324-2.043 1.403-.324 2.787-.613 2.122-1.841-1.973-3.637-.563-5.699 1.554-5.699 2.077 0 3.521 1.985 1.556 5.699-.647 1.22.688 1.51 2.121 1.841 1.284.297 1.328.936 1.323 2.057v.403zm8 0h-6v-2h6v2zm0-4h-6v-2h6v2zm0-4h-6v-2h6v2z"/></symbol>
    <!-- GAME: ITEM --><symbol id="ch-icon-game-item" viewBox="0 0 24 24"><path d="M16.0238095,4.92829591 C16.4844345,4.92829591 16.8571429,5.24319734 16.8571429,5.6323796 C16.8571429,6.02156185 16.4844345,6.33646328 16.0238095,6.33646328 L7.69047619,6.33646328 C7.22985119,6.33646328 6.85714286,6.02156185 6.85714286,5.6323796 C6.85714286,5.24319734 7.22985119,4.92829591 7.69047619,4.92829591 L16.0238095,4.92829591 Z M15.5859375,7 L8.41341964,7 C5.22866518,9.7920528 3,15.7097829 3,19.4677434 C3,24.5221453 7.02914732,23.9833619 12,23.9833619 C16.9708527,23.9833619 21,24.5221453 21,19.4677434 C21,15.7097829 18.7713348,9.7920528 15.5859375,7 Z M8.07076656,4.22421223 L15.9285922,4.22421223 C15.9285922,4.22421223 19.0428294,1.50825344 17.6342698,0.320112226 C16.2257102,-0.868028986 13.1004687,1.64026913 12.0000315,1.55225867 C10.8995944,1.64026913 7.77435281,-0.868028986 6.36579324,0.320112226 C4.95723366,1.50825344 8.07076656,4.22421223 8.07076656,4.22421223 Z" /></symbol>
    <!-- GAME: JOB --><symbol id="ch-icon-game-job" viewBox="0 0 24 24" fill-rule="evenodd" clip-rule="evenodd"><path d="M1.992 6.448c.337-.668.898-1.783 1.227-2.448.13-.261.378-.415.669-.441 1.367-.125 4.243-.339 5.429-.417.547-.036.951.045 1.301.397l2.786 2.8c.251.252.392.593.391.948l-.005 9.035 2.946 2.465 2.719-2.996c.591-.65 1.662-.435 1.942.399.938 2.817 2.603 7.81 2.603 7.81h-12l4.063-4.472-6.059-5.071-1.749-1.464 1.96 3.557c.104.188.164.396.178.608l.396 6.045c.022.354-.223.797-.787.797-.368 0-.687-.253-.77-.611-.309-1.323-1.025-4.399-1.206-5.178-.028-.12-.087-.229-.17-.319-.549-.591-2.738-2.892-2.738-2.892s-2.804 6.666-3.561 8.525c-.113.277-.374.475-.748.475-.462 0-.809-.382-.809-.803 0-.146 1.745-8.569 2.322-11.638.07-.371.239-.717.49-1l1.08-1.217-3.503-2.932c-.507-.425.137-1.192.642-.767l.961.805zm6.854 5.735l1.8 1.507 1.952 1.634-1.061-5.948-2.691 2.807zm-5.961-4.988l1.671 1.398 2.791-3.146-2.73-.183-1.732 1.931zm11.653-7.195c1.35 0 2.446 1.096 2.446 2.446s-1.096 2.445-2.446 2.445c-1.349 0-2.446-1.095-2.446-2.445 0-1.35 1.097-2.446 2.446-2.446z"/></symbol>
    <!-- GAME: POINTS --><symbol id="ch-icon-game-points" viewBox="0 0 24 24"><path d="M18.2994168,11.9140645 C17.8360623,11.9476845 17.3753196,12.0118631 16.9200702,12.1061989 C15.8207728,12.4008051 15.3986091,13.2632751 15.8834704,14.3050707 C16.3014542,15.1590015 16.8030348,15.9616964 17.262817,16.7942789 C17.5094274,17.2212443 17.7476782,17.6866365 17.9692096,18.1434895 C18.3784979,18.9937879 18.2948971,20.0054166 17.751858,20.7735963 C17.1427477,21.7361913 16.182909,22.4108363 15.0851213,22.6479743 C13.902227,22.9383108 13.04954,22.1569641 12.4058449,21.2304493 C12.1395799,20.7630105 11.9197414,20.2695454 11.7496103,19.7574187 C11.7245313,19.6976435 11.7287112,19.6122504 11.6910926,19.5652842 C11.4403023,19.2237119 11.2438499,18.7497804 10.905283,18.5875335 C10.4455008,18.3697812 10.1194734,18.8479824 9.86450331,19.2023637 C9.49249771,19.7232614 9.19572919,20.2996647 8.82372359,20.8205625 C8.31841301,21.5730874 7.75959328,22.2866219 7.1517883,22.9553894 C5.80170056,24.3558359 3.7619395,24.3003304 2.25719774,23.0749397 C0.326112483,21.4780892 0.919649511,19.2322512 2.03984615,18.0324785 C2.55396626,17.4731538 3.40665325,17.2340532 4.12976527,16.879672 C4.54774909,16.6747286 5.00753129,16.5551783 5.42551512,16.3459652 C5.86125352,16.1570101 6.17448709,15.7565409 6.25872252,15.2807095 C6.34295795,14.804878 6.18686001,14.3177151 5.84349894,13.9848466 C5.40918855,13.6220857 4.92642888,13.3244806 4.40981443,13.1010283 C4.14648462,12.9643994 3.82881691,12.9387814 3.57384678,12.8192311 C2.23629855,12.2214796 1.80577521,11.1369875 2.31989532,9.71946243 C2.90583559,8.01888321 4.50607655,6.90491541 6.26984244,6.96980534 C7.06512829,7.01796847 7.85213694,7.16126967 8.61473168,7.39677072 C9.47577835,7.61879272 9.50085738,7.6486803 9.90630169,6.8246371 C10.4496807,5.71879675 11.1602532,5.26621344 12.1926732,5.36868514 C12.7906877,5.34393274 13.3119332,5.78090568 13.4048263,6.38486276 C13.5009626,6.74351368 13.5051424,7.12778253 13.5887392,7.49070311 C13.7642924,8.2592408 14.3494697,8.48126281 14.9262874,7.95182573 C15.2262538,7.6204632 15.4820441,7.2500677 15.687018,6.85025503 C15.866751,6.56418822 15.9921461,6.24396418 16.1551598,5.94508841 C16.9911275,4.37812544 18.4331717,3.96396901 20.0507691,4.0023959 C20.5984915,4.01076348 21.1106664,4.28104704 21.4342955,4.73250671 C21.9816274,5.42148145 22.4591768,6.16535735 22.8596203,6.95272672 C23.0329581,7.47126727 23.0460905,8.03169833 22.8972389,8.55811657 C22.4416365,10.6929435 20.6234069,11.9994576 18.2994168,11.9140645 Z" /><path d="M19,1.37508438 C18.8661058,2.17062093 18.1825107,2.8144122 17.2766069,2.99812933 C16.7780093,3.02548549 16.3241851,2.75031873 16.1844566,2.33592699 C15.8513849,1.68859969 15.9759281,0.933751372 16.5050879,0.392601173 C16.7553928,0.0612680742 17.2338807,-0.0812750428 17.6673762,0.0463515848 C18.3521823,0.254672018 18.8588235,0.759833969 19,1.37508438 Z" /><path d="M20.0011967,17.0633733 C19.9739812,16.5279708 20.4140069,16.0643576 21.0104683,16 C21.5887044,16.0889271 22.0084025,16.5400025 21.9998723,17.0633733 C21.944175,17.5967295 21.4400761,18.0032918 20.8396073,17.9991418 C20.3508656,18.0204093 20.0091437,17.644684 20.0011967,17.0633733 Z" /></symbol>
    <!-- GAME: STORE --><symbol id="ch-icon-game-store" viewBox="0 0 24 24"><path d="M9.939 0l-.939 4.971v1.098c0 1.066-.934 1.931-2 1.931s-2-.865-2-1.932v-1.097l2.996-4.971h1.943zm-3.052 0l-2.887 4.971v1.098c0 1.066-.934 1.931-2 1.931s-2-.865-2-1.932v-1.097l4.873-4.971h2.014zm17.113 6.068c0 1.067-.934 1.932-2 1.932s-2-.933-2-2v-1.098l-2.887-4.902h2.014l4.873 4.971v1.097zm-10-1.168v1.098c0 1.066-.934 2.002-2 2.002s-2-.933-2-2v-1.098l1.047-4.902h1.906l1.047 4.9zm2.004-4.9l2.994 5.002v1.098c0 1.067-.932 1.9-1.998 1.9s-2-.933-2-2v-1.098l-.939-4.902h1.943zm4.996 12v7h-18v-7h18zm2-2h-22v14h22v-14zm-13.751 6.054c0 .399-.228.734-.697.878-.267.082-.641.096-.967.01-.472-.123-.789-.469-.781-.985l.001-.078h.736v.079c0 .211.11.344.313.397.184.047.497.042.622-.114.046-.057.054-.178-.01-.241-.173-.168-.572-.181-1.005-.347-.352-.133-.565-.384-.565-.753 0-.435.304-.739.709-.849.275-.075.56-.064.813-.002.441.107.74.422.74.904v.079h-.732l-.004-.074c-.013-.179-.09-.282-.271-.319-.127-.026-.31-.033-.421.039-.121.079-.15.249.007.322.273.128.836.173 1.149.378.228.151.363.375.363.676zm1.892-.947h-.941v-1.042h-.756v2.875h.755v-1.171h.941v1.171h.756v-2.875h-.756v1.042zm3.833.406c0 .853-.549 1.487-1.414 1.487-.871 0-1.415-.642-1.415-1.487 0-.865.547-1.513 1.415-1.513.878 0 1.414.661 1.414 1.513zm-.755 0c0-.467-.192-.853-.659-.853-.471 0-.658.392-.658.853 0 .45.198.83.658.83.461 0 .659-.381.659-.83zm3.327-.498c0 .389-.179.713-.555.87-.129.053-.285.08-.464.08h-.55v.974h-.755v-2.875h1.305c.179 0 .335.027.464.081.375.156.555.479.555.87zm-1.568.328h.386l.185-.014c.184-.029.261-.136.261-.314s-.078-.284-.261-.313l-.185-.014h-.386v.655z"/></symbol>
    <!-- JOB: CITIZEN --><symbol id="ch-icon-job-citizen" viewBox="0 0 24 24"><g stroke="none" stroke-width="1" fill="none" fill-rule="evenodd"><circle class="job-icon job-icon-citizen job-icon-bg" fill="#3B7B8E" fill-rule="evenodd" stroke="#F2F4F3" stroke-width="1" cx="12" cy="12" r="11"></circle><path class="job-icon job-icon-citizen job-icon-person" fill="#F2F4F3" d="M10.969279,15.556 C13.1007606,15.0926 14.3449925,14.6873 13.3833716,12.9786 C10.4590919,7.7797 12.6084226,5 15.6970629,5 C18.8466876,5 20.9432147,7.8868 18.0100105,12.9786 C17.0193847,14.6971 18.3350131,15.1024 20.4211282,15.556 C21.1268009,15.7095434 21.5806198,15.9284061 21.8720217,16.2223537 C22.3431747,16.6976228 21.3617785,17.6812898 21.3617785,17.6812898 C20.9265011,18.5604299 20.4287166,19 19.8684252,19 C17.4538644,19 13.8320233,19 9.00290171,19 C9.00290171,17.0785 8.83928483,16.0194 10.969279,15.556 Z M4.06682979,19 C4.70662604,19 5.80709661,19 7.3682415,19 C7.34592797,14.0938 9.55879282,15.8122 9.55879282,12.3238 C9.55879282,10.8172 8.51388199,10 7.1693323,10 C5.18342795,10 3.80190155,11.7874 5.68197601,15.1294 C6.29974208,16.2274 5.02468311,16.4884 3.65399471,16.786 C3.46058763,16.8280351 3.29548916,16.8737886 3.15769711,16.9355256 C1.76663387,17.5587834 3.10713542,19 4.06682979,19 Z"></path></g></symbol>
    <!-- JOB: SOVERIEGN CITIZEN --><symbol id="ch-icon-job-scitizen" viewBox="0 0 24 24"><g stroke="none" stroke-width="1" fill="none" fill-rule="evenodd"><circle class="job-icon job-icon-scitizen job-icon-bg" stroke-width="1" cx="12" cy="12" r="11" fill-rule="evenodd"></circle><path class="job-icon job-icon-scitizen job-icon-person" d="M17.8821216,15.064 C15.5893782,14.5346667 13.4553069,14.0706667 14.4886748,12.1186667 C17.6354467,6.17733333 15.3227027,3 12.0005916,3 C8.61247826,3 6.35773619,6.29933333 9.51250836,12.1186667 C10.5772106,14.082 8.3624699,14.546 6.11906154,15.064 C4.11129917,15.5278671 3.99751251,16.5141928 4.00003913,18.2275301 C4.00009069,18.2624945 4.00019069,18.2977616 4.00032402,18.3333333 L4.00299078,19 L19.996859,19 L19.9995257,18.354 C20.007526,16.562 19.9381903,15.5393333 17.8821216,15.064 Z"></path></g></symbol>
    <!-- JOB: SKELETON --><symbol id="ch-icon-job-skeleton" viewBox="0 0 24 24"><g stroke="none" stroke-width="1" fill="none" fill-rule="evenodd"><circle class="job-icon job-icon-skeleton job-icon-bg" fill-rule="evenodd" stroke-width="1" cx="12" cy="12" r="11"></circle><path class="job-icon job-icon-skeleton job-icon-symbol" fill-rule="nonzero" d="M12.0149821,4 C7.12247034,4 2.97453552,8.17296 4.22510691,12.26752 C4.52947976,13.26496 4.85030021,14.18032 5.2234203,14.99904 C4.63278542,15.56736 4.8880003,16.6648 5.44999049,17.19456 C5.7946507,17.5192 6.56473065,18.07744 7.21080684,18.30464 C7.73343369,18.2384 9.26232052,18.16384 9.16770066,19.56432 C9.34492809,19.62672 9.53047171,19.6808 9.72174426,19.72976 L9.72174426,19.176 L9.95219535,19.176 L9.95219535,19.78432 C10.2619275,19.85264 10.5858897,19.9056 10.9235273,19.94096 L10.9235273,19.176 L11.1532392,19.176 L11.1532392,19.96048 C11.466113,19.98608 11.7869335,20 12.1164397,20 C12.1192118,20 12.1221686,20 12.1249407,20 L12.1249407,19.17568 L12.3550222,19.17568 L12.3550222,19.99616 C12.6828652,19.99008 13.0044249,19.9728 13.3137874,19.94032 L13.3137874,19.17568 L13.5444233,19.17568 L13.5444233,19.91168 C13.8657982,19.87056 14.1744215,19.8144 14.4682605,19.74176 L14.4682605,19.176 L14.698342,19.176 L14.698342,19.68016 C14.8304772,19.6424 14.959101,19.60256 15.083844,19.55776 C14.8267811,17.80768 16.8694241,18.1008 17.1595671,18.15088 C17.827635,17.9568 18.6749632,17.34576 19.0414303,17.0008 C19.6259666,16.45072 19.8813663,15.284 19.195742,14.73888 C19.1726414,14.72048 19.1458448,14.70768 19.1216354,14.68976 C19.3762959,14.04816 19.6012028,13.34544 19.8102166,12.58 C20.9336426,8.45792 16.907309,4 12.0149821,4 Z M9.94409889,13.9401756 C9.071708,14.4337543 8.12394899,15.3848218 6.96082506,14.83299 C5.79731759,14.2811582 5.77046889,12.2557784 6.45319291,11.4520658 C7.03945339,10.7612652 10.400335,10.9283871 10.8331743,11.5080726 C11.2662055,12.0876082 10.816298,13.4465969 9.94409889,13.9401756 Z M12.9861534,16.9013041 C12.8875809,17.1731683 12.2745936,16.8154863 12.0000742,16.6386693 C11.7259081,16.8154863 11.1125675,17.1733302 11.0138183,16.9013041 C10.8859212,16.5491274 11.6854545,14.3536499 11.7817306,14.1763471 C11.8103484,14.1235611 11.8532752,14.0783853 11.8990285,14.0455155 C11.9219934,14.0108646 11.9548509,13.9971013 11.9930081,14.0005017 C11.9956579,14.0000159 11.997601,14.0008255 12.0002508,14.0005017 C12.002724,14.0008255 12.0048438,14.0000159 12.0074936,14.0005017 C12.0456508,13.9971013 12.0785083,14.0110265 12.1016499,14.0456774 C12.1475798,14.0782234 12.1903299,14.1233992 12.2184178,14.1763471 C12.3141639,14.353488 13.1142272,16.5492893 12.9861534,16.9013041 Z M17.2042483,14.7922596 C16.1071794,15.4086038 15.0958663,14.500482 14.1973201,14.0498965 C13.2982072,13.5993109 12.742495,12.2540516 13.1198957,11.6476801 C13.4965409,11.0416108 16.7856697,10.6969476 17.419771,11.3613422 C18.1573835,12.1349834 18.3005616,14.1753109 17.2042483,14.7922596 Z"></path></g></symbol>
    <!-- STATUS: JAIL --><symbol id="ch-icon-status-jail" viewBox="0 0 24 24"><g transform="translate(12.000000, 12.000000) scale(-1, 1) rotate(-180.000000) translate(-12.000000, -12.000000)"><path d="M0.000566037736,23.090449 L0.000566037736,22.180898 L0.467830189,22.180898 L0.93509434,22.180898 L0.93509434,12 L0.93509434,1.81885714 L0.467830189,1.81885714 L0.000566037736,1.81885714 L0.000566037736,0.909306122 L0.000566037736,0 L12,0 L23.999434,0 L23.999434,0.90955102 L23.999434,1.81910204 L23.5030189,1.81910204 L23.0066038,1.81910204 L23.0066038,12 L23.0066038,22.1811429 L23.5030189,22.1811429 L23.999434,22.1811429 L23.999434,23.0906939 L23.999434,24 L12,24 L0.000566037736,24 L0.000566037736,23.090449 Z M5.1390566,16.6383673 L5.1390566,11.1007347 L4.68367925,10.6660408 C3.16556604,9.216 2.77415094,8.42277551 3.21792453,7.66995918 C3.53915094,7.12432653 4.42075472,6.96269388 4.96386792,7.35673469 L5.1390566,7.4882449 L5.1390566,4.65355102 L5.1390566,1.81910204 L3.59179245,1.81910204 L2.0445283,1.81910204 L2.0445283,12 L2.0445283,22.1811429 L3.59179245,22.1811429 L5.1390566,22.1811429 L5.1390566,16.6383673 Z M9.33141509,12.0151837 L9.31415094,1.84408163 L7.78415094,1.82889796 L6.24849057,1.81885714 L6.24849057,5.12326531 L6.24849057,8.42767347 L6.52867925,8.48840816 C6.68037736,8.52391837 7.08933962,8.55918367 7.44537736,8.56922449 C7.79575472,8.57926531 8.16933962,8.61477551 8.27462264,8.64489796 C8.64254717,8.74604082 8.99292453,9.216 8.99292453,9.6 C8.98698113,9.80204082 8.7945283,10.1204082 8.56669811,10.2923265 C8.25141509,10.5298776 7.97688679,10.5751837 7.04858491,10.5499592 L6.24283019,10.5247347 L6.26037736,10.6814694 C6.27792453,10.8330612 6.2895283,10.8382041 6.65745283,10.8783673 C7.20056604,10.9339592 8.15235849,10.8783673 8.43849057,10.7671837 C8.56698113,10.7167347 8.75971698,10.605551 8.86471698,10.5247347 L9.05150943,10.3682449 L9.05150943,12.0102857 L9.05150943,13.6523265 L8.83556604,13.6170612 C8.33915094,13.5413878 8.26924528,13.4958367 6.3540566,12.0355102 C6.25471698,11.9647347 6.2490566,12.2071837 6.2490566,17.0679184 L6.2490566,22.1811429 L7.79632075,22.1811429 L9.34358491,22.1811429 L9.33141509,12.0151837 Z M13.4306604,12 L13.4306604,1.81885714 L11.9416981,1.81885714 L10.4527358,1.81885714 L10.4527358,12 L10.4527358,22.1811429 L11.9416981,22.1811429 L13.4306604,22.1811429 L13.4306604,12 Z M17.6932075,17.0931429 L17.6932075,12.0051429 L17.4772642,12.1819592 C17.2262264,12.379102 16.3270755,13.0307755 15.9707547,13.2732245 C15.614717,13.5107755 15.27,13.6420408 15.0073585,13.6420408 L14.7735849,13.6420408 L14.7735849,11.9696327 L14.7735849,10.2972245 L15.0130189,10.4840816 C15.1474528,10.5852245 15.3399057,10.7013061 15.4392453,10.7368163 C15.690283,10.8276735 16.6887736,10.8832653 17.2434906,10.8379592 C17.6813208,10.802449 17.6932075,10.802449 17.6932075,10.6711837 L17.6932075,10.5347755 L17.0334906,10.5499592 C16.1634906,10.5751837 15.6438679,10.5044082 15.375,10.3275918 C14.9895283,10.0748571 14.8437736,9.55959184 15.0365094,9.16040816 C15.2583962,8.70073469 15.4978302,8.60963265 16.5837736,8.57436735 C17.0507547,8.55918367 17.4888679,8.52881633 17.564717,8.50873469 L17.6932075,8.47836735 L17.6932075,5.14873469 L17.6932075,1.81910204 L16.1165094,1.81910204 L14.5398113,1.81910204 L14.5398113,12 L14.5398113,22.1811429 L16.1165094,22.1811429 L17.6932075,22.1811429 L17.6932075,17.0931429 L17.6932075,17.0931429 Z M21.8971698,12 L21.8971698,1.81885714 L20.3499057,1.81885714 L18.8026415,1.81885714 L18.8026415,4.90604082 L18.8026415,7.99322449 L19.0185849,7.83159184 C19.304717,7.61436735 19.6550943,7.47795918 19.9412264,7.47795918 C20.4200943,7.47795918 20.8930189,7.78114286 21.0215094,8.17518367 C21.2317925,8.832 20.8522642,9.45355102 19.5500943,10.5751837 L18.8026415,11.2168163 L18.8026415,16.6988571 L18.8026415,22.180898 L20.3499057,22.180898 L21.8971698,22.180898 L21.8971698,12 Z" /><path d="M8.91113208,18.1792653 C8.6190566,17.472 8.625,16.6988571 8.94028302,16.0976327 C9.04528302,15.890449 9.04528302,15.890449 9.04528302,17.1435918 C9.05122642,17.8307755 9.03933962,18.3915918 9.02773585,18.3915918 C9.01613208,18.3915918 8.96377358,18.2955918 8.91113208,18.1792653 Z" /><path d="M8.84688679,8.53885714 C8.53754717,8.26089796 8.26896226,8.18522449 7.58575472,8.18522449 L6.97839623,8.18522449 L7.21188679,5.5324898 L7.43971698,2.8797551 L8.2454717,2.8797551 L9.05122642,2.8797551 L9.05122642,5.78497959 C9.05122642,7.38171429 9.04528302,8.69020408 9.03367925,8.69020408 C9.02207547,8.69044898 8.94028302,8.61967347 8.84688679,8.53885714 Z" /><path d="M11.4161321,19.9883265 C11.3869811,19.9782857 11.2058491,19.9427755 11.025,19.9075102 L10.6862264,19.8519184 L10.6862264,17.229551 L10.6862264,14.6071837 L10.9372642,14.541551 C11.2700943,14.4506939 12.5020755,14.4658776 12.8467925,14.5618776 L13.109717,14.6326531 L13.1272642,17.2195102 L13.1388679,19.8014694 L12.8351887,19.8822857 C12.5431132,19.9579592 11.5446226,20.0336327 11.4161321,19.9883265 Z" /><polygon points="10.6862264 8.28636735 10.6862264 2.88 11.9125472 2.88 13.1388679 2.88 13.1388679 8.28636735 13.1388679 13.6927347 11.9125472 13.6927347 10.6862264 13.6927347" /><path d="M14.7795283,17.1940408 L14.7854717,15.890449 L14.9490566,16.1936327 C15.1768868,16.6028571 15.2643396,17.0980408 15.1825472,17.5427755 C15.1183019,17.901551 14.9196226,18.4219592 14.8262264,18.4675102 C14.7970755,18.4875918 14.7735849,17.9924082 14.7795283,17.1940408 Z" /><path d="M14.7735849,5.83567347 L14.7735849,2.8797551 L15.4683962,2.8797551 L16.1632075,2.8797551 L16.1866981,3.37493878 C16.2042453,3.64261224 16.2217925,4.8604898 16.2277358,6.07812245 L16.2393396,8.28612245 L16.0233962,8.28612245 C15.690566,8.28612245 15.3984906,8.38212245 15.0716038,8.59420408 L14.7738679,8.79134694 L14.7738679,5.83567347 L14.7735849,5.83567347 Z" /></g></symbol>
    <!-- STATUS: VAMPIRE --><symbol id="ch-icon-status-vampire" viewBox="0 0 24 24"><path d="M7.58656331,2.86206376 C7.49046118,1.984488 6.14738033,1.01818497 5.48824841,1.01818497 C5.35854629,1.01818497 5.25539735,1.05527588 5.19345692,1.13782133 C4.0797548,2.61570012 5.9198399,6.06279103 5.9198399,6.06279103 C5.9198399,6.06279103 7.74516756,4.31824557 7.58656331,2.86206376 Z M14.1652186,6.53018497 C14.1652186,6.53018497 15.9174739,3.24618497 14.8568271,1.84170012 C14.7978484,1.76339709 14.6993974,1.72776072 14.5761803,1.72776072 C13.9476867,1.72776072 12.6688442,2.64794254 12.5774399,3.48412436 C12.4259335,4.86473042 14.1652186,6.53018497 14.1652186,6.53018497 Z M11.4218654,3.4785486 C11.3304612,2.64230618 10.0510569,1.72218497 9.42322714,1.72218497 C9.29995905,1.72218497 9.20145692,1.75782133 9.14252927,1.83612436 C8.08132075,3.24339709 9.83413778,6.52460921 9.83413778,6.52460921 C9.83413778,6.52460921 11.5733718,4.86479103 11.4219165,3.4785486 L11.4218654,3.4785486 Z M1.89590799,2.49520709e-06 C1.86753396,-5.68518128e-05 1.83917462,0.00117049927 1.81093778,0.00367988267 C-2.66991329,0.41449003 2.39168671,13.1529142 3.88157607,14.0000004 C3.88157607,14.0000004 3.01430799,7.02969637 4.02429948,2.77312038 C4.39389948,1.2053122 2.79846118,2.49520709e-06 1.89580586,2.49520709e-06 L1.89590799,2.49520709e-06 Z M22.1883676,0.00367977578 C22.1601482,0.00116562267 22.1318056,-6.17418532e-05 22.1034484,2.38840325e-06 C21.200742,2.38840325e-06 19.6029548,1.20425482 19.9750059,2.77312021 C20.9849463,7.0296961 20.1176782,14 20.1176782,14 C21.6099165,13.1534654 26.6697803,0.415041521 22.1883165,0.00372574312 L22.1883676,0.00367977578 Z M18.511108,1.01818497 C17.8513633,1.01818497 16.5064442,1.9845486 16.412691,2.86206376 C16.2540867,4.31479103 18.0800271,6.06345769 18.0800271,6.06345769 C18.0800271,6.06345769 19.9195505,2.61570012 18.8064101,1.13860921 C18.743908,1.05527588 18.6407591,1.01818497 18.5110569,1.01818497 L18.511108,1.01818497 Z M10.938342,22.168488 C10.8345803,21.4793971 9.63121012,20.0258819 9.63121012,20.0258819 C9.63121012,20.0258819 8.58235905,21.4786092 8.5935931,22.0699425 C8.5935931,22.2000638 8.53461437,23.4694577 8.69725267,23.6457001 C8.84411224,23.8060031 9.35291224,23.8907304 9.8523165,23.8907304 C10.3357888,23.8907304 10.8097633,23.8116395 10.938342,23.6457607 C11.0562995,23.4960638 10.9554484,22.2680031 10.938342,22.1686092 L10.938342,22.168488 Z M7.87246969,20.6927304 C7.25638458,19.438791 6.89434203,17.6012153 6.69330373,16.2240638 C6.53531224,15.1352153 6.47934629,14.3347304 6.47934629,14.3347304 C5.70690373,15.050488 4.21762714,22.6786698 6.60904841,22.6786698 C6.693797,22.6783344 6.77837619,22.6696582 6.8619165,22.6527304 C7.09783139,22.6065486 7.39604416,22.3924274 7.62838458,22.0929728 C7.93144841,21.7032759 8.11124416,21.1735789 7.87246969,20.692791 L7.87246969,20.6927304 Z M17.5158739,14.3333365 C17.5158739,14.3333365 17.4645037,15.0624274 17.3230059,16.0750335 C17.1284527,17.4668516 16.762325,19.3926092 16.1237718,20.6934577 C15.9315676,21.0853365 16.0146995,21.5066092 16.2128271,21.8592759 C16.4486399,22.2750335 16.8413208,22.5947304 17.1337633,22.6521244 C17.2173249,22.6690065 17.3019193,22.6776622 17.3866825,22.6780031 C19.7821888,22.6752153 18.2893378,15.0470941 17.5175591,14.330488 L17.5158739,14.3333365 Z M15.401525,22.0727304 C15.4127591,21.4813971 14.363908,20.0287304 14.363908,20.0287304 C14.363908,20.0287304 13.1622739,21.4793365 13.0608612,22.1685486 C13.047891,22.2560638 12.9299846,23.4771547 13.0608612,23.646488 C13.1917888,23.8158213 13.6640271,23.8913365 14.1468867,23.8913365 C14.646291,23.8913365 15.155091,23.8067304 15.3019505,23.646488 C15.5259676,23.3987304 15.4021378,22.1140031 15.4033122,22.0706092 L15.401525,22.0727304 Z M8.08084735,22.4296547 L8.10514735,22.4411547 L8.10514735,22.3971547 L8.08084735,22.4296547 Z" /></symbol>
    <!-- SIGN: DANGER --><symbol id="ch-icon-sign-danger" viewBox="0 0 24 24"><path d="M12 2c5.514 0 10 4.486 10 10s-4.486 10-10 10-10-4.486-10-10 4.486-10 10-10zm0-2c-6.627 0-12 5.373-12 12s5.373 12 12 12 12-5.373 12-12-5.373-12-12-12zm-1 6h2v8h-2v-8zm1 12.25c-.69 0-1.25-.56-1.25-1.25s.56-1.25 1.25-1.25 1.25.56 1.25 1.25-.56 1.25-1.25 1.25z"/></symbol>
    <!-- SIGN: INFO --><symbol id="ch-icon-sign-info" viewBox="0 0 24 24"><path d="M12 2c5.514 0 10 4.486 10 10s-4.486 10-10 10-10-4.486-10-10 4.486-10 10-10zm0-2c-6.627 0-12 5.373-12 12s5.373 12 12 12 12-5.373 12-12-5.373-12-12-12zm-.001 5.75c.69 0 1.251.56 1.251 1.25s-.561 1.25-1.251 1.25-1.249-.56-1.249-1.25.559-1.25 1.249-1.25zm2.001 12.25h-4v-1c.484-.179 1-.201 1-.735v-4.467c0-.534-.516-.618-1-.797v-1h3v6.265c0 .535.517.558 1 .735v.999z"/></symbol>
    <!-- SIGN: SUCCESS --><symbol id="ch-icon-sign-success" viewBox="0 0 24 24"><path d="M12 2c5.514 0 10 4.486 10 10s-4.486 10-10 10-10-4.486-10-10 4.486-10 10-10zm0-2c-6.627 0-12 5.373-12 12s5.373 12 12 12 12-5.373 12-12-5.373-12-12-12zm-1.959 17l-4.5-4.319 1.395-1.435 3.08 2.937 7.021-7.183 1.422 1.409-8.418 8.591z"/></symbol>
    <!-- SECURITY: BUG--><symbol id="ch-icon-security-bug" viewBox="0 0 24 24"><path d="M24 21.172l-5.66-5.659c1.047-1.581 1.66-3.475 1.66-5.513 0-5.523-4.477-10-10-10s-10 4.477-10 10 4.477 10 10 10c2.038 0 3.932-.613 5.512-1.66l5.66 5.66 2.828-2.828zm-22-11.172c0-4.411 3.589-8 8-8s8 3.589 8 8-3.589 8-8 8-8-3.589-8-8zm13 1.006c0 .239-.196.432-.439.432h-.995c-.231 0-.479.138-.532.473-.043.269.112.484.318.576l1.009.449c.221.098.318.354.22.572-.102.217-.361.314-.581.216l-1.068-.475c-.139-.063-.292-.029-.4.151-.446.735-1.31 1.464-2.532 1.6-1.246-.139-2.12-.894-2.557-1.643-.089-.152-.247-.164-.374-.107l-1.068.475c-.221.098-.479.001-.581-.216-.099-.218-.001-.474.22-.572l1.009-.449c.218-.097.359-.306.313-.609-.046-.285-.29-.44-.527-.44h-.996c-.243-.001-.439-.194-.439-.433s.196-.432.439-.432h1.001c.229 0 .47-.147.514-.462.034-.242-.114-.451-.322-.531l-.929-.362c-.226-.088-.337-.338-.248-.56.09-.222.345-.332.57-.244l.956.371c.123.047.298.032.392-.183.076-.169.16-.328.25-.477.713.416 1.497.624 2.377.624.867 0 1.661-.212 2.374-.625.095.154.183.318.259.494.081.183.249.221.386.168l.956-.371c.226-.088.48.021.57.244.089.222-.022.472-.248.56l-.929.361c-.2.077-.358.273-.32.556.038.274.272.438.512.438h1.001c.243-.001.439.192.439.431zm-6.587-4.847c.134.03.25.112.321.228.258.429-.078.796-.391 1.179.504.235 1.046.351 1.657.351.602 0 1.148-.119 1.654-.353-.308-.377-.644-.753-.389-1.177.071-.116.188-.198.321-.228.265-.058.465-.291.465-.573.001-.323-.265-.586-.595-.586-.393 0-.677.369-.575.74.038.141.018.29-.057.415-.169.279-.457.447-.824.449-.372-.002-.656-.173-.824-.449-.074-.125-.095-.274-.057-.415.102-.372-.182-.74-.575-.74-.33 0-.596.263-.596.586 0 .282.2.515.465.573z"/></symbol>
    <!-- SECURITY: LOG --><symbol id="ch-icon-security-log" viewBox="0 0 24 24"><path d="M23 17h-22v7h22v-7zm-20 5l.863-3h1.275l-.863 3h-1.275zm2.066 0l.863-3h1.275l-.863 3h-1.275zm2.067 0l.863-3h1.275l-.864 3h-1.274zm2.066 0l.863-3h1.274l-.863 3h-1.274zm3.341 0h-1.274l.863-3h1.275l-.864 3zm7.46-.5c-.552 0-1-.448-1-1s.448-1 1-1c.553 0 1 .448 1 1s-.447 1-1 1zm1-19.5v11h-18v-11h18zm2-2h-22v15h22v-15zm-13 7.5l-2.563-2.5-.771.751 1.794 1.749-1.794 1.749.771.751 2.563-2.5zm7 1.5h-5v1h5v-1z"/></symbol>
    <!-- SOCIAL: DISCORD --><symbol id="ch-icon-social-discord" viewBox="0 0 24 24" fill-rule="evenodd" clip-rule="evenodd"><path d="M19.54 0c1.356 0 2.46 1.104 2.46 2.472v21.528l-2.58-2.28-1.452-1.344-1.536-1.428.636 2.22h-13.608c-1.356 0-2.46-1.104-2.46-2.472v-16.224c0-1.368 1.104-2.472 2.46-2.472h16.08zm-4.632 15.672c2.652-.084 3.672-1.824 3.672-1.824 0-3.864-1.728-6.996-1.728-6.996-1.728-1.296-3.372-1.26-3.372-1.26l-.168.192c2.04.624 2.988 1.524 2.988 1.524-1.248-.684-2.472-1.02-3.612-1.152-.864-.096-1.692-.072-2.424.024l-.204.024c-.42.036-1.44.192-2.724.756-.444.204-.708.348-.708.348s.996-.948 3.156-1.572l-.12-.144s-1.644-.036-3.372 1.26c0 0-1.728 3.132-1.728 6.996 0 0 1.008 1.74 3.66 1.824 0 0 .444-.54.804-.996-1.524-.456-2.1-1.416-2.1-1.416l.336.204.048.036.047.027.014.006.047.027c.3.168.6.3.876.408.492.192 1.08.384 1.764.516.9.168 1.956.228 3.108.012.564-.096 1.14-.264 1.74-.516.42-.156.888-.384 1.38-.708 0 0-.6.984-2.172 1.428.36.456.792.972.792.972zm-5.58-5.604c-.684 0-1.224.6-1.224 1.332 0 .732.552 1.332 1.224 1.332.684 0 1.224-.6 1.224-1.332.012-.732-.54-1.332-1.224-1.332zm4.38 0c-.684 0-1.224.6-1.224 1.332 0 .732.552 1.332 1.224 1.332.684 0 1.224-.6 1.224-1.332 0-.732-.54-1.332-1.224-1.332z"/></symbol>
    <!-- SOCIAL: FACEBOOK --><symbol id="ch-icon-social-facebook" viewBox="0 0 24 24"><path d="M9 8h-3v4h3v12h5v-12h3.642l.358-4h-4v-1.667c0-.955.192-1.333 1.115-1.333h2.885v-5h-3.808c-3.596 0-5.192 1.583-5.192 4.615v3.385z"/></symbol>
    <!-- SOCIAL: FIREFOX --><symbol id="ch-icon-social-firefox" viewBox="0 0 24 24"><path d="M12 0c-6.627 0-12 5.373-12 12s5.373 12 12 12 12-5.373 12-12-5.373-12-12-12zm8.003 8.657c-1.276-3.321-4.46-4.605-5.534-4.537 3.529 1.376 4.373 6.059 4.06 7.441-.307-1.621-1.286-3.017-1.872-3.385 3.417 8.005-4.835 10.465-7.353 7.687.649.168 1.931.085 2.891-.557.898-.602.983-.638 1.56-.683.686-.053-.041-1.406-1.539-1.177-.616.094-1.632.819-2.88.341-1.508-.576-1.46-2.634.096-2.015.337-.437.088-1.263.088-1.263.452-.414 1.022-.706 1.37-.911.228-.135.829-.507.795-1.23-.123-.096-.32-.219-.766-.193-1.736.11-1.852-.518-1.967-.808.078-.668.524-1.534 1.361-1.931-1.257-.193-2.28.397-2.789 1.154-.809-.174-1.305-.183-2.118-.031-.316-.24-.666-.67-.878-1.181 1.832-2.066 4.499-3.378 7.472-3.378 5.912 0 8.263 4.283 8.003 6.657z"/></symbol>
    <!-- SOCIAL: GITHUB --><symbol id="ch-icon-social-github" viewBox="0 0 24 24"><path d="M12 0c-6.626 0-12 5.373-12 12 0 5.302 3.438 9.8 8.207 11.387.599.111.793-.261.793-.577v-2.234c-3.338.726-4.033-1.416-4.033-1.416-.546-1.387-1.333-1.756-1.333-1.756-1.089-.745.083-.729.083-.729 1.205.084 1.839 1.237 1.839 1.237 1.07 1.834 2.807 1.304 3.492.997.107-.775.418-1.305.762-1.604-2.665-.305-5.467-1.334-5.467-5.931 0-1.311.469-2.381 1.236-3.221-.124-.303-.535-1.524.117-3.176 0 0 1.008-.322 3.301 1.23.957-.266 1.983-.399 3.003-.404 1.02.005 2.047.138 3.006.404 2.291-1.552 3.297-1.23 3.297-1.23.653 1.653.242 2.874.118 3.176.77.84 1.235 1.911 1.235 3.221 0 4.609-2.807 5.624-5.479 5.921.43.372.823 1.102.823 2.222v3.293c0 .319.192.694.801.576 4.765-1.589 8.199-6.086 8.199-11.386 0-6.627-5.373-12-12-12z"/></symbol>
    <!-- SOCIAL: IE --><symbol id="ch-icon-social-ie" viewBox="0 0 24 24"><path d="M22.825 7.477c2.111-4.696.548-7.477-3.221-7.477-1.792 0-4.258.93-6.012 1.797-6.239-.068-9.823 4.349-10.989 8.536 1.833-2.229 4.182-4.3 5.688-4.729-4.814 3.932-8.291 10.322-8.291 14.506 0 2.31 1.027 3.89 3.41 3.89 1.955 0 3.529-.929 4.989-1.586 1.36.733 2.861 1.168 4.396 1.168 5.62 0 9.18-2.9 10.766-7.582h-6.014c-.897 1.623-2.144 2.616-4.292 2.616-2.642 0-4.522-2.239-4.588-4.616h15.311c.014-.324.022-.643.022-.957 0-2.092-.342-3.943-1.175-5.566zm-19.66 9.002c.803 2.173 2.433 4.164 4.464 5.482-5.967 3.016-6.978-1.131-4.464-5.482zm5.567-5.479c.087-1.777 1.882-4.312 4.704-4.312 2.641 0 4.497 2.224 4.562 4.312h-9.266zm8.579-8.438c3.276-1.529 7.314-1.343 5.056 4.117-1.053-1.619-2.676-2.989-5.056-4.117z"/></symbol>
    <!-- SOCIAL: LINUX --><symbol id="ch-icon-social-linux" viewBox="0 0 24 24"><path d="M20.581 19.049c-.55-.446-.336-1.431-.907-1.917.553-3.365-.997-6.331-2.845-8.232-1.551-1.595-1.051-3.147-1.051-4.49 0-2.146-.881-4.41-3.55-4.41-2.853 0-3.635 2.38-3.663 3.738-.068 3.262.659 4.11-1.25 6.484-2.246 2.793-2.577 5.579-2.07 7.057-.237.276-.557.582-1.155.835-1.652.72-.441 1.925-.898 2.78-.13.243-.192.497-.192.74 0 .75.596 1.399 1.679 1.302 1.461-.13 2.809.905 3.681.905.77 0 1.402-.438 1.696-1.041 1.377-.339 3.077-.296 4.453.059.247.691.917 1.141 1.662 1.141 1.631 0 1.945-1.849 3.816-2.475.674-.225 1.013-.879 1.013-1.488 0-.39-.139-.761-.419-.988zm-9.147-10.465c-.319 0-.583-.258-1-.568-.528-.392-1.065-.618-1.059-1.03 0-.283.379-.37.869-.681.526-.333.731-.671 1.249-.671.53 0 .69.268 1.41.579.708.307 1.201.427 1.201.773 0 .355-.741.609-1.158.868-.613.378-.928.73-1.512.73zm1.665-5.215c.882.141.981 1.691.559 2.454l-.355-.145c.184-.543.181-1.437-.435-1.494-.391-.036-.643.48-.697.922-.153-.064-.32-.11-.523-.127.062-.923.658-1.737 1.451-1.61zm-3.403.331c.676-.168 1.075.618 1.078 1.435l-.31.19c-.042-.343-.195-.897-.579-.779-.411.128-.344 1.083-.115 1.279l-.306.17c-.42-.707-.419-2.133.232-2.295zm-2.115 19.243c-1.963-.893-2.63-.69-3.005-.69-.777 0-1.031-.579-.739-1.127.248-.465.171-.952.11-1.343-.094-.599-.111-.794.478-1.052.815-.346 1.177-.791 1.447-1.124.758-.937 1.523.537 2.15 1.85.407.851 1.208 1.282 1.455 2.225.227.871-.71 1.801-1.896 1.261zm6.987-1.874c-1.384.673-3.147.982-4.466.299-.195-.563-.507-.927-.843-1.293.539-.142.939-.814.46-1.489-.511-.721-1.555-1.224-2.61-2.04-.987-.763-1.299-2.644.045-4.746-.655 1.862-.272 3.578.057 4.069.068-.988.146-2.638 1.496-4.615.681-.998.691-2.316.706-3.14l.62.424c.456.337.838.708 1.386.708.81 0 1.258-.466 1.882-.853.244-.15.613-.302.923-.513.52 2.476 2.674 5.454 2.795 7.15.501-1.032-.142-3.514-.142-3.514.842 1.285.909 2.356.946 3.67.589.241 1.221.869 1.279 1.696l-.245-.028c-.126-.919-2.607-2.269-2.83-.539-1.19.181-.757 2.066-.997 3.288-.11.559-.314 1.001-.462 1.466zm4.846-.041c-.985.38-1.65 1.187-2.107 1.688-.88.966-2.044.503-2.168-.401-.131-.966.36-1.493.572-2.574.193-.987-.023-2.506.431-2.668.295 1.753 2.066 1.016 2.47.538.657 0 .712.222.859.837.092.385.219.709.578 1.09.418.447.29 1.133-.635 1.49zm-8-13.006c-.651 0-1.138-.433-1.534-.769-.203-.171.05-.487.253-.315.387.328.777.675 1.281.675.607 0 1.142-.519 1.867-.805.247-.097.388.285.143.382-.704.277-1.269.832-2.01.832z"/></symbol>
    <!-- SOCIAL: OPERA --><symbol id="ch-icon-social-opera" viewBox="0 0 24 24"><path d="M12.003 0c-6.254 0-11.003 4.547-11.003 11.886 0 6.34 4.399 12.114 11 12.114 6.602 0 11-5.774 11-12.114 0-7.33-4.742-11.886-10.997-11.886zm0 2.12c3.541 0 4.261 5 4.261 9.539 0 4.205-.401 9.834-4.218 9.834s-4.311-5.685-4.311-9.889c.001-4.539.727-9.484 4.268-9.484z"/></symbol>
    <!-- SOCIAL: RSS --><symbol id="ch-icon-social-rss" viewBox="0 0 24 24"><path d="M6.503 20.752c0 1.794-1.456 3.248-3.251 3.248-1.796 0-3.252-1.454-3.252-3.248 0-1.794 1.456-3.248 3.252-3.248 1.795.001 3.251 1.454 3.251 3.248zm-6.503-12.572v4.811c6.05.062 10.96 4.966 11.022 11.009h4.817c-.062-8.71-7.118-15.758-15.839-15.82zm0-3.368c10.58.046 19.152 8.594 19.183 19.188h4.817c-.03-13.231-10.755-23.954-24-24v4.812z"/></symbol>
    <!-- SOCIAL: SAFARI --><symbol id="ch-icon-social-safari" viewBox="0 0 24 24"><path d="M10.615 11.885l-2.979 7.411 5.747-5.327 2.927-7.304-5.695 5.22zm1.544 2.02c-.535.078-1.032-.291-1.111-.824-.079-.533.292-1.029.827-1.107.535-.078 1.033.291 1.111.824.078.534-.292 1.029-.827 1.107zm-4.061-12.723c0-.652.686-1.182 1.528-1.182s1.528.53 1.528 1.182c0 .255-.105.491-.284.685-.07-.14-.157-.272-.261-.385.062-.092.098-.194.098-.3 0-.399-.495-.737-1.081-.737s-1.081.337-1.081.737c0 .247.189.47.472.604-.05.132-.083.281-.097.444-.488-.198-.822-.593-.822-1.048zm1.006 13.208l-3.845-.049 3.532-1.672c.029-.425.141-.828.321-1.192l-1.634-1.69 2.203.882c.244-.252.528-.465.842-.627l.206-3.822 1.587 3.473-.543.498c-1.709.141-2.875 1.824-2.377 3.473l-.292.726zm2.896-12.31c-.442 0-.877.026-1.306.077-.162-.428-.495-.815-.94-.715-.451.1-.568.587-.562.998-4.714 1.237-8.192 5.514-8.192 10.6 0 6.053 4.925 10.96 11 10.96s11-4.907 11-10.96-4.925-10.96-11-10.96zm2.389 19.594l-.729-1.079-.184 1.277c-4.824.791-9.228-2.354-10.242-6.853l.977-.623-1.133-.292c-.556-4.692 2.567-8.764 6.825-9.773l.6.935.222-1.09c4.641-.653 8.792 2.294 9.942 6.489l-.947.743 1.136.101c.807 4.697-2.163 8.99-6.467 10.165zm4.172-10.028l-3.368 1.609c-.037.317-.12.621-.242.903l1.707 1.746-2.244-.904c-.257.292-.567.537-.915.72l-.089 3.885-1.671-3.475.602-.558c1.633-.205 2.728-1.82 2.274-3.419l.271-.675 3.675.168z"/></symbol>
    <!-- SOCIAL: SHARE --><symbol id="ch-icon-social-share" viewBox="0 0 24 24"><path d="M19.647 15.247c-1.278 0-2.429.551-3.225 1.429l-7.788-3.846c.062-.343.079-.64.067-.942l8.058-4.231c.769.682 1.78 1.097 2.889 1.097 2.404-.001 4.352-1.949 4.352-4.353s-1.948-4.353-4.353-4.353-4.353 1.949-4.353 4.353c0 .18.012.356.033.53l-7.828 4.111c-.793-.829-1.908-1.347-3.146-1.347-2.405 0-4.353 1.949-4.353 4.353s1.948 4.353 4.353 4.353c1.013 0 1.943-.347 2.684-.927l8.26 4.078-.001.047c0 2.404 1.948 4.353 4.353 4.353s4.351-1.949 4.351-4.353-1.948-4.352-4.353-4.352z"/></symbol>
    <!-- SOCIAL: SOUNDCLOUD --><symbol id="ch-icon-social-soundcloud" viewBox="0 0 24 24"><path d="M7 17.939h-1v-8.068c.308-.231.639-.429 1-.566v8.634zm3 0h1v-9.224c-.229.265-.443.548-.621.857l-.379-.184v8.551zm-2 0h1v-8.848c-.508-.079-.623-.05-1-.01v8.858zm-4 0h1v-7.02c-.312.458-.555.971-.692 1.535l-.308-.182v5.667zm-3-5.25c-.606.547-1 1.354-1 2.268 0 .914.394 1.721 1 2.268v-4.536zm18.879-.671c-.204-2.837-2.404-5.079-5.117-5.079-1.022 0-1.964.328-2.762.877v10.123h9.089c1.607 0 2.911-1.393 2.911-3.106 0-2.233-2.168-3.772-4.121-2.815zm-16.879-.027c-.302-.024-.526-.03-1 .122v5.689c.446.143.636.138 1 .138v-5.949z"/></symbol>
    <!-- SOCIAL: SPOTIFY --><symbol id="ch-icon-social-spotify" viewBox="0 0 24 24" fill-rule="evenodd" clip-rule="evenodd"><path d="M19.098 10.638c-3.868-2.297-10.248-2.508-13.941-1.387-.593.18-1.22-.155-1.399-.748-.18-.593.154-1.22.748-1.4 4.239-1.287 11.285-1.038 15.738 1.605.533.317.708 1.005.392 1.538-.316.533-1.005.709-1.538.392zm-.126 3.403c-.272.44-.847.578-1.287.308-3.225-1.982-8.142-2.557-11.958-1.399-.494.15-1.017-.129-1.167-.623-.149-.495.13-1.016.624-1.167 4.358-1.322 9.776-.682 13.48 1.595.44.27.578.847.308 1.286zm-1.469 3.267c-.215.354-.676.465-1.028.249-2.818-1.722-6.365-2.111-10.542-1.157-.402.092-.803-.16-.895-.562-.092-.403.159-.804.562-.896 4.571-1.045 8.492-.595 11.655 1.338.353.215.464.676.248 1.028zm-5.503-17.308c-6.627 0-12 5.373-12 12 0 6.628 5.373 12 12 12 6.628 0 12-5.372 12-12 0-6.627-5.372-12-12-12z"/></symbol>
    <!-- SOCIAL: STEAM --><symbol id="ch-icon-social-steam" viewBox="0 0 24 24"><path d="M22.411 9.681c0 .924-.751 1.676-1.676 1.676-.924 0-1.676-.752-1.676-1.676s.752-1.676 1.676-1.676c.925 0 1.676.752 1.676 1.676zm1.589 0c0 1.801-1.464 3.282-3.303 3.263l-2.872 2.141-.006.002c-.008 1.369-1.111 2.483-2.485 2.496-1.24.01-2.257-.872-2.484-2.021l-8.962-3.769c-.39.256-.854.409-1.354.414-1.398.012-2.521-1.109-2.534-2.486-.014-1.395 1.113-2.534 2.511-2.534 1.213 0 2.228.863 2.459 2.013l8.971 3.772c.416-.272.896-.418 1.428-.407l2.105-2.946c.033-1.773 1.48-3.202 3.262-3.202 1.802 0 3.264 1.461 3.264 3.264zm-20.794 1.826l-1.226-.515c-.716-.301-1.052-1.125-.751-1.84.301-.716 1.125-1.052 1.841-.751l1.211.509c-.303-.678-.984-1.153-1.77-1.153-1.096.004-1.951.895-1.941 1.958.01 1.044.861 1.926 1.958 1.922.236-.002.464-.048.678-.13zm14.045 3.547c-.01-1.06-.88-1.922-1.939-1.922-.229.001-.455.04-.686.127l1.229.517c.716.301 1.052 1.125.751 1.84-.301.715-1.124 1.052-1.841.751l-1.23-.518c.302.685.985 1.165 1.794 1.162 1.072-.009 1.932-.884 1.922-1.957zm5.703-5.373c0-1.224-.995-2.219-2.219-2.219-1.223 0-2.219.995-2.219 2.219 0 1.223.996 2.219 2.219 2.219 1.224 0 2.219-.996 2.219-2.219z"/></symbol>
    <!-- SOCIAL: TUMBLR --><symbol id="ch-icon-social-tumblr" viewBox="0 0 24 24"><path fill-rule="evenodd" clip-rule="evenodd" d="M19.512 17.489l-.096-.068h-3.274c-.153 0-.16-.467-.163-.622v-5.714c0-.056.045-.101.101-.101h3.82c.056 0 .101-.045.101-.101v-5.766c0-.055-.045-.1-.101-.1h-3.803c-.055 0-.1-.045-.1-.101v-4.816c0-.055-.045-.1-.101-.1h-7.15c-.489 0-1.053.362-1.135 1.034-.341 2.778-1.882 4.125-4.276 4.925l-.267.089-.068.096v4.74c0 .056.045.101.1.101h2.9v6.156c0 4.66 3.04 6.859 9.008 6.859 2.401 0 5.048-.855 5.835-1.891l.157-.208-1.488-4.412zm.339 4.258c-.75.721-2.554 1.256-4.028 1.281l-.165.001c-4.849 0-5.682-3.701-5.682-5.889v-7.039c0-.056-.045-.101-.1-.101h-2.782c-.056 0-.101-.045-.101-.101l-.024-3.06.064-.092c2.506-.976 3.905-2.595 4.273-5.593.021-.167.158-.171.159-.171h3.447c.055 0 .101.045.101.101v4.816c0 .056.045.101.1.101h3.803c.056 0 .101.045.101.1v3.801c0 .056-.045.101-.101.101h-3.819c-.056 0-.097.045-.097.101v6.705c.023 1.438.715 2.167 2.065 2.167.544 0 1.116-.126 1.685-.344.053-.021.111.007.13.061l.995 2.95-.024.104z"/></symbol>
    <!-- SOCIAL: TWITCH --><symbol id="ch-icon-social-twitch" viewBox="0 0 24 24"><path fill-rule="evenodd" clip-rule="evenodd" d="M2.149 0l-1.612 4.119v16.836h5.731v3.045h3.224l3.045-3.045h4.657l6.269-6.269v-14.686h-21.314zm19.164 13.612l-3.582 3.582h-5.731l-3.045 3.045v-3.045h-4.836v-15.045h17.194v11.463zm-3.582-7.343v6.262h-2.149v-6.262h2.149zm-5.731 0v6.262h-2.149v-6.262h2.149z"/></symbol>
    <!-- SOCIAL: TWITTER --><symbol id="ch-icon-social-twitter" viewBox="0 0 24 24"><path d="M24 4.557c-.883.392-1.832.656-2.828.775 1.017-.609 1.798-1.574 2.165-2.724-.951.564-2.005.974-3.127 1.195-.897-.957-2.178-1.555-3.594-1.555-3.179 0-5.515 2.966-4.797 6.045-4.091-.205-7.719-2.165-10.148-5.144-1.29 2.213-.669 5.108 1.523 6.574-.806-.026-1.566-.247-2.229-.616-.054 2.281 1.581 4.415 3.949 4.89-.693.188-1.452.232-2.224.084.626 1.956 2.444 3.379 4.6 3.419-2.07 1.623-4.678 2.348-7.29 2.04 2.179 1.397 4.768 2.212 7.548 2.212 9.142 0 14.307-7.721 13.995-14.646.962-.695 1.797-1.562 2.457-2.549z"/></symbol>
    <!-- SOCIAL: VIMEO --><symbol id="ch-icon-social-vimeo" viewBox="0 0 24 24"><path d="M22.875 10.063c-2.442 5.217-8.337 12.319-12.063 12.319-3.672 0-4.203-7.831-6.208-13.043-.987-2.565-1.624-1.976-3.474-.681l-1.128-1.455c2.698-2.372 5.398-5.127 7.057-5.28 1.868-.179 3.018 1.098 3.448 3.832.568 3.593 1.362 9.17 2.748 9.17 1.08 0 3.741-4.424 3.878-6.006.243-2.316-1.703-2.386-3.392-1.663 2.673-8.754 13.793-7.142 9.134 2.807z"/></symbol>
    <!-- SOCIAL: WINDOWS --><symbol id="ch-icon-social-windows" viewBox="0 0 24 24"><path d="M0 12v-8.646l10-1.355v10.001h-10zm11 0h13v-12l-13 1.807v10.193zm-1 1h-10v7.646l10 1.355v-9.001zm1 0v9.194l13 1.806v-11h-13z"/></symbol>
    <!-- SOCIAL: YOUTUBE --><symbol id="ch-icon-social-youtube" viewBox="0 0 24 24"><path d="M19.615 3.184c-3.604-.246-11.631-.245-15.23 0-3.897.266-4.356 2.62-4.385 8.816.029 6.185.484 8.549 4.385 8.816 3.6.245 11.626.246 15.23 0 3.897-.266 4.356-2.62 4.385-8.816-.029-6.185-.484-8.549-4.385-8.816zm-10.615 12.816v-8l8 3.993-8 4.007z"/></symbol>
    <!-- UI: ANNOUNCEMENT --><symbol id="ch-icon-ui-announcement" viewBox="0 0 24 24"><path d="M17.561 5.663c.856.411 1.556 1.149 1.893 2.117.339.967.254 1.98-.157 2.836l1.407.678c.585-1.216.708-2.656.227-4.03-.481-1.375-1.474-2.424-2.689-3.009l-.681 1.408zm1.188-2.465c1.486.715 2.698 1.998 3.286 3.678s.438 3.441-.277 4.927l1.443.696c.893-1.857 1.079-4.055.346-6.153-.734-2.098-2.247-3.698-4.102-4.591l-.696 1.443zm-10.932 12.494l-2.342-6.437-3.24 1.179c-1.766.643-2.673 2.605-2.025 4.382.646 1.777 2.603 2.697 4.368 2.055l3.239-1.179zm-6.321-1.343c-.387-1.065.153-2.244 1.207-2.626l1.951-.711 1.406 3.862-1.952.71c-1.052.383-2.224-.171-2.612-1.235zm11.818-11.592l4.686 12.873c-3.82-.802-6.74-.82-8.896-.407l-.471-1.296c2.06-.431 4.495-.453 7.267-.06l-3.06-8.407c-1.876 2.097-3.723 3.613-5.606 4.624l-.472-1.297c1.892-1.052 4.08-2.881 6.552-6.03zm-2.453 17.276c-.436-.151-.815-.429-1.09-.797l-1.637-2.194-3.956 1.441 2.603 3.34c.294.375.794.518 1.239.356l2.872-1.045c.229-.084.383-.304.381-.549-.002-.246-.156-.463-.389-.543l-.023-.009zm-3.121.79l-1.335-1.701 1.244-.453 1.3 1.713-1.209.441z"/></symbol>
    <!-- UI: GAMEPAD --><symbol id="ch-icon-ui-gamepad" viewBox="0 0 24 24"><path d="M6 2l1.172.203c-.356 2.245.791 2.519 2.697 2.874 1.469.273 3.131.622 3.131 3.284v.639h-1.183v-.639c0-1.556-.479-1.809-2.163-2.122-2.584-.48-4.097-1.391-3.654-4.239zm-.176 10c-2.108 0-3.824 1.794-3.824 4s1.716 4 3.825 4c.928 0 1.825-.354 2.524-.999 1.015-.933 2.323-1.447 3.684-1.447 1.337 0 2.611.505 3.589 1.423.704.659 1.611 1.023 2.553 1.023 2.109 0 3.825-1.794 3.825-4 0-2.151-1.602-3.906-3.652-4h-12.524zm.001-2l12.563.007c3.118.116 5.612 2.755 5.612 5.993 0 3.312-2.607 6-5.825 6-1.511 0-2.886-.595-3.921-1.565-.637-.597-1.429-.881-2.221-.881-.838 0-1.676.318-2.329.919-1.03.948-2.389 1.527-3.879 1.527-3.218 0-5.825-2.688-5.825-6s2.607-6 5.825-6zm3.175 5h-2v-2h-2v2h-2v2h2v2h2v-2h2v-2zm4 1h-2v1h2v-1zm4-2c0 .552.447 1 1 1s1-.448 1-1-.447-1-1-1-1 .448-1 1zm0 2c0-.552-.447-1-1-1s-1 .448-1 1 .447 1 1 1 1-.448 1-1zm2 2c0-.552-.447-1-1-1s-1 .448-1 1 .447 1 1 1 1-.448 1-1zm2-2c0-.552-.447-1-1-1s-1 .448-1 1 .447 1 1 1 1-.448 1-1z"/></symbol>
    <!-- UI: GAMEPAD2 --><symbol id="ch-icon-ui-gamepad2" viewBox="0 0 24 24"><path d="M9 10h-1v1h-1v-1h-1v-1h1v-1h1v1h1v1zm4 1h-2v-1h2v1zm3.5-2c-.276 0-.5-.224-.5-.5s.224-.5.5-.5.5.224.5.5-.224.5-.5.5zm-1 1c-.276 0-.5-.224-.5-.5s.224-.5.5-.5.5.224.5.5-.224.5-.5.5zm2 0c-.276 0-.5-.224-.5-.5s.224-.5.5-.5.5.224.5.5-.224.5-.5.5zm-1 1c-.276 0-.5-.224-.5-.5s.224-.5.5-.5.5.224.5.5-.224.5-.5.5zm7.407 5.049l-2.344-9.66c-.205-.821-.942-1.389-1.788-1.389h-15.551c-.846 0-1.583.568-1.788 1.389l-2.344 9.66c-.063.251-.092.491-.092.716 0 1.38 1.094 2.235 2.286 2.235.632 0 1.292-.235 1.83-.773l2.405-2.345c.476.693 1.353 1.118 2.109 1.118 1.836 0 2.307-1.654 3.367-1.654h.005c1.061 0 1.531 1.654 3.368 1.654.756 0 1.633-.425 2.107-1.119l2.405 2.345c.539.539 1.199.774 1.831.774 1.191 0 2.287-.855 2.287-2.234 0-.226-.029-.465-.093-.717zm-5.015-1.613l-.449-.456c-1.059-1.081-1.895-1.935-3.131-1.935-.938 0-1.502.358-2 .675-.413.263-.771.49-1.323.49-.53 0-.887-.227-1.301-.49-.498-.316-1.062-.675-2-.675-1.236 0-2.072.854-3.131 1.935l-2.87 2.816c-.3.298-.777.324-.629-.271l2.13-8.762c.108-.448.51-.763.971-.763h13.682c.461 0 .863.315.972.764l2.133 8.776c.145.584-.34.55-.649.239l-2.405-2.343zm-10.177 1.39c-.653 0-1.185-.531-1.185-1.185 0-.653.531-1.185 1.185-1.185s1.185.531 1.185 1.185c-.001.653-.532 1.185-1.185 1.185zm6.57 0c-.653 0-1.186-.531-1.186-1.185 0-.653.532-1.185 1.186-1.185s1.185.531 1.185 1.185c0 .653-.532 1.185-1.185 1.185z"/></symbol>
    <!-- UI: ARROW-CARET-DOUBLE --><symbol id="ch-icon-ui-arrow-caret-double-right" viewBox="0 0 24 24"><path d="M14 12l-14 9v-18l14 9zm-4-9v4l8.022 5-8.022 5v4l14-9-14-9z"/></symbol>
    <!-- UI: ARROW-CARET-DOUBLE-REVERSE --><symbol id="ch-icon-ui-arrow-caret-double-left" viewBox="0 0 24 24"><path d="M14,12 L0,21 L0,3 L14,12 Z M10,3 L10,7 L18.022,12 L10,17 L10,21 L24,12 L10,3 Z" transform="matrix(-1 0 0 1 24 0)"/></symbol>
    <!-- UI: ARROW-CHEVRON-STROKE-SINGLE-RIGHT --><symbol id="ch-icon-ui-arrow-chevron-stroke-single-right" viewBox="0 0 24 24"><polygon points="4 3 7.057 0 19 12 7.057 24 4 21 13 12"/></symbol>
    <!-- UI: ARROW-CHEVRON-STROKE-SINGLE-LEFT --><symbol id="ch-icon-ui-arrow-chevron-stroke-single-left" viewBox="0 0 24 24"><polygon points="4 3 7.057 0 19 12 7.057 24 4 21 13 12" transform="matrix(-1 0 0 1 23 0)"/></symbol>
    <!-- UI: CHANNEL --><symbol id="ch-icon-ui-channel" viewBox="0 0 24 24"><path d="M13.846 9.812l.775-.776c-.671-.672-1.597-1.087-2.621-1.087-1.023 0-1.949.415-2.621 1.086l.776.776c.473-.471 1.124-.763 1.845-.763.722 0 1.373.292 1.846.764zm-5.846-2.155l.796.796c.82-.82 1.953-1.327 3.205-1.327 1.251 0 2.384.507 3.204 1.327l.795-.796c-1.023-1.024-2.438-1.657-3.999-1.657-1.562 0-2.977.633-4.001 1.657zm8 5.187v10.156h-8v-10.156c.772-1.229 2.386-1.844 4-1.844 1.613 0 3.227.615 4 1.844zm-5 1.157c0 .552.447 1 1 1s1-.448 1-1c0-.553-.447-1.001-1-1.001s-1 .448-1 1.001zm3 4.999c0-1.104-.895-2-1.998-2-1.106 0-2.002.896-2.002 2 0 1.105.896 2 2.002 2 1.103 0 1.998-.895 1.998-2zm-2-1c-.553 0-1 .448-1 1s.447 1 1 1 1-.448 1-1-.447-1-1-1zm12-17v16h-6v-2h4v-12h-20v12h4v2h-6v-16h24z"/></symbol>
    <!-- UI: DASHBOARD --><symbol id="ch-icon-ui-dashboard" viewBox="0 0 24 24"><path d="M20.043 10.76c-.141-.427-.314-.844-.516-1.242l-2.454 1.106c.217.393.39.81.517 1.242l2.453-1.106zm-12.572-.904c.271-.354.579-.674.918-.957l-1.89-1.968c-.328.293-.637.614-.919.957l1.891 1.968zm1.714-1.514c.38-.221.781-.396 1.198-.523l-1.033-2.569c-.412.142-.813.317-1.2.524l1.035 2.568zm-2.759 3.615c.121-.435.287-.854.498-1.25l-2.47-1.066c-.196.403-.364.823-.498 1.25l2.47 1.066zm9.434-6.2c-.387-.205-.79-.379-1.2-.519l-1.023 2.573c.418.125.82.299 1.2.519l1.023-2.573zm2.601 2.131c-.281-.342-.59-.664-.918-.957l-1.891 1.968c.34.283.648.604.919.957l1.89-1.968zm-5.791-3.06c-.219-.017-.437-.026-.648-.026-.213 0-.432.009-.65.026v2.784c.216-.025.434-.038.65-.038.215 0 .434.013.648.038v-2.784zm-.649 13.782c-1.293 0-2.343-1.049-2.343-2.343 0-.883.489-1.652 1.21-2.051l1.133-5.309 1.133 5.309c.723.399 1.211 1.168 1.211 2.051 0 1.294-1.049 2.343-2.344 2.343zm-.021-15.61c5.514 0 10 4.486 10 10 0 1.758-.458 3.5-1.303 5h-4.427c-.41 1.047-1.645 3-4.27 3-2.656 0-3.859-1.953-4.27-3h-4.427c-.845-1.5-1.303-3.242-1.303-5 0-5.514 4.486-10 10-10zm0-2c-6.627 0-12 5.373-12 12 0 2.583.816 5.042 2.205 7h4.357c.93 1.647 3.015 3 5.438 3s4.508-1.353 5.438-3h4.357c1.389-1.958 2.205-4.417 2.205-7 0-6.627-5.373-12-12-12z"/></symbol>
    <!-- UI: DOWNLOAD --><symbol id="ch-icon-ui-download" viewBox="0 0 24 24"><path d="M16 11h5l-9 10-9-10h5v-11h8v11zm3 8v3h-14v-3h-2v5h18v-5h-2z"/></symbol>
    <!-- UI: FILTER --><symbol id="ch-icon-ui-filter" viewBox="0 0 24 24"><polygon points="1 0 23 0 14 15.094 14 24 10 21 10 15.094" /></symbol>
    <!-- UI: ID --><symbol id="ch-icon-ui-id" viewBox="0 0 24 24"><path d="M22 5v14h-20v-14h20zm2-2h-24v18h24v-18zm-10 13.597v.403h-10v-.417c-.004-1.112.044-1.747 1.324-2.043 1.403-.324 2.787-.613 2.122-1.841-1.973-3.637-.563-5.699 1.554-5.699 2.077 0 3.521 1.985 1.556 5.699-.647 1.22.688 1.51 2.121 1.841 1.284.297 1.328.936 1.323 2.057zm6-9.597h-4v2h4v-2zm0 4h-4v2h4v-2zm0 4h-4v2h4v-2z"/></symbol>
    <!-- UI: LIBRARY --><symbol id="ch-icon-ui-library" viewBox="0 0 24 24"><path d="M2 0v24h20v-24h-20zm18 22h-13v-20h6v10l2.5-2.634 2.5 2.634v-10h2v20z"/></symbol>
    <!-- UI: MENU (DOTS:FILL) --><symbol id="ch-icon-ui-menu-dots-fill" viewBox="0 0 24 24"><circle cx="4" cy="12" r="3" /><circle cx="12" cy="12" r="3" /><circle cx="20" cy="12" r="3" /></symbol>
    <!-- UI: PLAYLIST --><symbol id="ch-icon-ui-playlist" viewBox="0 0 24 24"><path d="M6,23 L6,19 L24,19 L24,23 L6,23 Z M4,23 L0,23 L0,19 L4,19 L4,23 Z M6,17 L6,13 L24,13 L24,17 L6,17 Z M4,17 L0,17 L0,13 L4,13 L4,17 Z M6,11 L6,7 L24,7 L24,11 L6,11 Z M4,7 L4,11 L0,11 L0,7 L4,7 Z M6,1 L24,1 L24,5 L6,5 L6,1 Z M4,1 L4,5 L0,5 L0,1 L4,1 Z" /><polygon points="0 1 24 1 24 0 0 0" /></symbol>
    <!-- UI: PLUS --><symbol id="ch-icon-ui-plus" viewBox="0 0 24 24"><polygon points="24 9 15 9 15 0 9 0 9 9 0 9 0 15 9 15 9 24 15 24 15 15 24 15" /></symbol>
    <!-- UI: PREFERENCES --><symbol id="ch-icon-ui-preferences" viewBox="0 0 24 24"><path d="M12 0c-.883 0-1.742.102-2.57.283l.349 1.974c.715-.163 1.456-.257 2.221-.257 5.514 0 10 4.486 10 10 0 1.679-.421 3.26-1.154 4.65l-1.377-1.376c-.662-.661-1.002-1.581-.93-2.514.137-1.767-.471-3.58-1.82-4.93-1.225-1.224-2.825-1.83-4.428-1.83-.604 0-1.207.086-1.791.257l3.771 3.771c.408 1.889-2.33 4.66-4.242 4.242l-3.771-3.77c-.172.584-.258 1.188-.258 1.792 0 1.602.607 3.202 1.83 4.426 1.35 1.351 3.164 1.958 4.93 1.821.934-.072 1.852.269 2.514.931l1.376 1.376c-1.391.734-2.971 1.154-4.65 1.154-5.514 0-10-4.486-10-10 0-1.914.551-3.697 1.489-5.217l2.173 2.173 1.353-7.014-7.015 1.35 2.037 2.038c-1.282 1.907-2.037 4.198-2.037 6.67 0 6.627 5.373 12 12 12s12-5.373 12-12-5.373-12-12-12z"/></symbol>
    <!-- UI: POLL --><symbol id="ch-icon-ui-poll" viewBox="0 0 24 24"><path d="M13 20.002h2v3.998h-2v-3.998zm-6.902 3.998h2.627l3.42-3.998h-2.633l-3.414 3.998zm9.773-3.998l3.42 3.998h2.627l-3.414-3.998h-2.633zm8.129-17.01c0 .876-.399 1.654-1 2.2v12.808h-18.984v-4h-4.016c.854-1.333 1.016-2.932 1.016-5.456v-5.183c0-2.062 1.322-3.292 2.953-3.339-.017-.031 16.996-.02 17.031-.02 1.657 0 3 1.333 3 2.99zm-18.939.021c0-.551-.448-1-1-1-.747 0-1.061.599-1.061 1.348v5.183c0 1.583 0 2.442-.229 3.458h1.244v-7.989c.552 0 1.046-.449 1.046-1zm15.955 2.987h-15.016v10.002h15.016v-10.002zm-.016-4h-14.124c.255.699.238 1.339-.001 2.002h14.125c1.303 0 1.345-2.002 0-2.002zm-10.666 12c1.307-2.344 2.214-3.548 3.454-4.63l-.161-.37c-1.503.935-2.312 1.64-3.535 3.028-.651-.464-1.018-.678-1.597-.958l-.495.458c.991.918 1.528 1.523 2.334 2.472zm8.666-5h-4v1h4v-1zm0 2h-4v1h4v-1zm0 2h-4v1h4v-1z"/></symbol>
    <!-- UI: SEARCH --><symbol id="ch-icon-ui-search" viewBox="0 0 24 24"><path d="M21.172,24 L13.785,16.613 C12.397,17.487 10.761,18 9,18 C4.029,18 0,13.971 0,9 C0,4.029 4.029,0 9,0 C13.971,0 18,4.029 18,9 C18,10.761 17.486,12.398 16.613,13.785 L24,21.172 L21.172,24 Z M9,16 C12.859,16 16,12.86 16,9 C16,5.14 12.859,2 9,2 C5.141,2 2,5.14 2,9 C2,12.86 5.141,16 9,16 Z" /></symbol>
    <!-- UI: SORT-AZ --><symbol id="ch-icon-ui-sort-az" viewBox="0 0 24 24"><path d="M6 22l6-8h-4v-12h-4v12h-4l6 8zm11.694-19.997h2.525l3.781 10.997h-2.421l-.705-2.261h-3.935l-.723 2.261h-2.336l3.814-10.997zm-.147 6.841h2.736l-1.35-4.326-1.386 4.326zm-.951 11.922l3.578-4.526h-3.487v-1.24h5.304v1.173l-3.624 4.593h3.633v1.234h-5.404v-1.234z"/></symbol>
    <!-- UI: TRASH --><symbol id="ch-icon-ui-trash" viewBox="0 0 24 24"><path d="M3 6v18h18v-18h-18zm5 14c0 .552-.448 1-1 1s-1-.448-1-1v-10c0-.552.448-1 1-1s1 .448 1 1v10zm5 0c0 .552-.448 1-1 1s-1-.448-1-1v-10c0-.552.448-1 1-1s1 .448 1 1v10zm5 0c0 .552-.448 1-1 1s-1-.448-1-1v-10c0-.552.448-1 1-1s1 .448 1 1v10zm4-18v2h-20v-2h5.711c.9 0 1.631-1.099 1.631-2h5.315c0 .901.73 2 1.631 2h5.712z"/></symbol>
    <!-- UI: UPLOAD --><symbol id="ch-icon-ui-upload" viewBox="0 0 24 24"><path d="M8 10h-5l9-10 9 10h-5v10h-8v-10zm11 9v3h-14v-3h-2v5h18v-5h-2z"/></symbol>
    <!-- UI: USER --><symbol id="ch-icon-ui-user" viewBox="0 0 24 24"><path d="M20.822,18.096 C17.383,17.302 14.182,16.606 15.732,13.678 C20.452,4.766 16.983,0 12,0 C6.918,0 3.536,4.949 8.268,13.678 C9.865,16.623 6.543,17.319 3.178,18.096 C0.105,18.806 -0.01,20.332 8.8839526e-16,23 L0.004,24 L23.994,24 L23.998,23.031 C24.01,20.343 23.906,18.809 20.822,18.096 Z" /></symbol>
    <!-- UI: USERSCRIPT --><symbol id="ch-icon-ui-userscript" viewBox="0 0 24 24"><path d="M14.568.075c2.202 1.174 5.938 4.883 7.432 6.881-1.286-.9-4.044-1.657-6.091-1.179.222-1.468-.185-4.534-1.341-5.702zm7.432 10.925v13h-20v-24h8.409c4.857 0 3.335 8 3.335 8 3.009-.745 8.256-.419 8.256 3zm-11 1l-5 2.201v1.599l5 2.2v-1.653l-3.229-1.347 3.229-1.351v-1.649zm7 2.201l-5-2.201v1.649l3.229 1.351-3.229 1.347v1.653l5-2.201v-1.598z"/></symbol>
    <!-- UI: VIDEO-PLAY-END --><symbol id="ch-icon-ui-video-play-end" viewBox="0 0 24 24"><path d="M11 16v-2.048s-7.156-.066-11 4.048c1.806-7.861 11-9.913 11-9.913v-2.087l7.18 5.02-7.18 4.98zm6-10v2.184l3.891 2.836-3.891 2.835v2.145l7-4.98-7-5.02z"/></symbol>
    <!-- UI: VIDEO-PLAY-NEXT --><symbol id="ch-icon-ui-video-play-next" viewBox="0 0 24 24"><path d="M14 18l10-7.088-10-6.912v3.042s-11.618 2.583-14 12.958c5.072-5.431 14-5.218 14-5.218v3.218z"/></symbol>
    <!-- UI: LINKS --><symbol id="ch-icon-ui-links" viewBox="0 0 24 24"><path d="M5 7c2.761 0 5 2.239 5 5s-2.239 5-5 5-5-2.239-5-5 2.239-5 5-5zm11.122 12.065c-.073.301-.122.611-.122.935 0 2.209 1.791 4 4 4s4-1.791 4-4-1.791-4-4-4c-1.165 0-2.204.506-2.935 1.301l-5.488-2.927c-.23.636-.549 1.229-.943 1.764l5.488 2.927zm7.878-15.065c0-2.209-1.791-4-4-4s-4 1.791-4 4c0 .324.049.634.122.935l-5.488 2.927c.395.535.713 1.127.943 1.764l5.488-2.927c.731.795 1.77 1.301 2.935 1.301 2.209 0 4-1.791 4-4z"/></symbol>
    <!-- UI: COOLPOINT COINS--><symbol id="ch-icon-ui-coin" viewBox="0 0 24 24" fill="none"><path d="M12 0C18.6275 0 24 5.37253 24 12C24 18.6275 18.6275 24 12 24C5.37253 24 -1.2517e-06 18.6275 -1.2517e-06 12C-1.2517e-06 5.37253 5.37253 0 12 0Z" fill="#F8C341"/><path d="M12 2.66666C17.1547 2.66666 21.3333 6.84532 21.3333 12C21.3333 17.1547 17.1547 21.3333 12 21.3333C6.84534 21.3333 2.66668 17.1547 2.66668 12C2.66668 6.84532 6.84534 2.66666 12 2.66666Z" fill="#CE8C00"/><path d="M4.42132 4.82401L2.94932 5.29334L4.13865 6.28001L4.60798 7.75201L5.59465 6.56267L7.06665 6.09067L5.87732 5.10401L5.40798 3.63467L4.42132 4.82401Z" fill="#FFED9A"/><path d="M2.31733 9.552L1.79466 10.328L2.73066 10.3493L3.50666 10.872L3.52799 9.936L4.05066 9.16L3.11466 9.13866L2.33599 8.616L2.31733 9.552Z" fill="#FFED9A"/><path d="M8.74491 12.1445C8.74491 10.4221 10.1129 9.01498 11.8363 8.92071L12.2421 6.69H8.5237L6.58694 17.3372H10.3053L10.7113 15.1051C10.1269 14.8539 9.62959 14.44 9.28029 13.9141C8.93098 13.3882 8.74491 12.7732 8.74491 12.1445V12.1445Z" fill="#F8C341"/><path d="M13.8468 6.69L13.3884 9.20979C13.9578 9.46762 14.4403 9.88118 14.7785 10.4014C15.1168 10.9216 15.2965 11.5266 15.2965 12.1445C15.2965 13.8455 13.9622 15.2394 12.2689 15.3643L11.91 17.3372H15.6284L17.5652 6.69H13.8468Z" fill="#F8C341"/><path d="M10.759 10.7686C10.759 10.5684 11.0003 10.4433 11.1931 10.5435L13.8238 11.908C14.0166 12.0082 14.0166 12.2583 13.8238 12.3583L11.1931 13.7229C11.0003 13.8231 10.759 13.6979 10.759 13.4977V10.7686Z" fill="#F8C341"/></symbol>
    <!-- UI: COOLPOINT COIN STENCIL--><symbol id="ch-icon-ui-coin-stencil" viewBox="0 0 4.2333332 4.233333" version="1.1" xml:space="preserve" xmlns="http://www.w3.org/2000/svg" xmlns:svg="http://www.w3.org/2000/svg"><defs id="defs2" /><path id="path354" fill="#F0F0F0" fill-rule="nonzero" style="stroke-width:0.499999;stroke-linejoin:round" d="M 2.1166666,0 A 2.1166666,2.1166666 0 0 0 0,2.1166666 2.1166666,2.1166666 0 0 0 2.1166666,4.2333332 2.1166666,2.1166666 0 0 0 4.2333332,2.1166666 2.1166666,2.1166666 0 0 0 2.1166666,0 Z m 0,0.42529703 A 1.6914089,1.6914089 0 0 1 3.8080362,2.1166666 1.6914089,1.6914089 0 0 1 2.1166666,3.8080362 1.6914089,1.6914089 0 0 1 0.42529703,2.1166666 1.6914089,1.6914089 0 0 1 2.1166666,0.42529703 Z M 1.7766357,1.0314616 c -0.3538459,0 -0.3749412,6.779e-4 -0.3767212,0.00672 -0.00302,0.010153 -0.3865397,2.150791 -0.3865397,2.157491 0,0.00556 0.029334,0.0062 0.3751709,0.0062 0.2063091,0 0.3751709,-0.0011 0.3751709,-0.00207 0,-9.557e-4 0.018044,-0.1028142 0.040308,-0.2268595 0.022264,-0.1240452 0.0399,-0.2262818 0.039274,-0.2268595 -6.25e-4,-5.81e-4 -0.016872,-0.00912 -0.036174,-0.01912 C 1.5938165,2.616408 1.4612587,2.4087916 1.4500407,2.1678263 1.4362184,1.8709189 1.6356213,1.5968971 1.9264974,1.5125691 1.9614694,1.5024302 2.035448,1.488798 2.056722,1.488798 c 0.00788,0 0.013953,-7.271e-4 0.013953,-0.00207 0,-0.00134 0.018171,-0.1032211 0.040308,-0.2263427 0.022145,-0.1231217 0.040308,-0.2250028 0.040308,-0.2263428 0,-0.00134 -0.1684805,-0.00258 -0.3746541,-0.00258 z m 1.0681518,0 c -0.2063091,0 -0.3751708,0.00113 -0.3751708,0.00207 0,9.307e-4 -0.020308,0.1160258 -0.045475,0.2563151 -0.025167,0.1402894 -0.045476,0.2554408 -0.044958,0.2557984 5.13e-4,3.6e-4 0.014388,0.00784 0.030489,0.016536 0.1533994,0.082904 0.264576,0.2135029 0.3183268,0.3741374 0.077244,0.2308381 0.020013,0.4839819 -0.1493449,0.6604248 -0.1041461,0.1085029 -0.2560313,0.1845961 -0.3937744,0.1974039 -0.014075,0.00126 -0.027159,0.00338 -0.028939,0.00465 -0.00182,0.00124 -0.018516,0.088089 -0.037207,0.1927531 -0.018691,0.1046644 -0.034607,0.1944878 -0.035657,0.1999878 l -0.00207,0.010335 h 0.3751709 c 0.3542824,0 0.3754579,-6.88e-4 0.3772379,-0.00672 0.00303,-0.010168 0.3865397,-2.150771 0.3865397,-2.157491 0,-0.00558 -0.028748,-0.0062 -0.3751709,-0.0062 z M 1.9073771,1.8081583 c -0.019274,8.243e-4 -0.039878,0.011124 -0.048576,0.025322 -0.00729,0.011981 -0.00761,0.016195 -0.00672,0.3110921 l 0.00103,0.2992065 0.0093,0.00982 c 0.00503,0.00545 0.014124,0.012156 0.020154,0.014986 0.00653,0.00305 0.019036,0.00433 0.031006,0.00362 0.018448,-0.00111 0.042971,-0.012975 0.2940388,-0.1452108 C 2.409826,2.220489 2.4832297,2.1796748 2.4887297,2.1719648 2.5042907,2.1501078 2.5005047,2.1201168 2.4799397,2.1016848 2.4752319,2.0974487 2.3499748,2.0298677 2.201416,1.9518188 2.0029382,1.8475428 1.9271903,1.8094583 1.9156453,1.8081583 c -0.00265,-2.983e-4 -0.00551,-1.177e-4 -0.00827,0 z" /></symbol>
  </defs>
</svg>